<svg xmlns="http://www.w3.org/2000/svg" width="20" height="20" viewBox="0 0 20 20">
    <g fill="none" fill-rule="evenodd">
        <g fill="#1F2343">
            <g>
                <g>
                    <path d="M10.722.876c.623 0 1.152.44 1.279 1.046l.02.132.007.129v1.056c0 .623-.44 1.152-1.045 1.28l-.133.02-.128.007-.279-.001v.076l.104.01c1.342.144 2.61.616 3.711 1.367l.272.193.264.205.066.056.802-.802-.57-.57c-.064-.065-.086-.157-.064-.24l.024-.06.04-.053.748-.747c.081-.082.205-.095.3-.041l.053.04 2.242 2.242c.082.082.095.205.04.3l-.04.054-.747.747c-.081.081-.205.095-.3.04l-.053-.04-.571-.571-.804.803.06.072c1.031 1.274 1.66 2.818 1.793 4.461l.02.33.007.332c0 4.508-3.667 8.175-8.175 8.175-4.508 0-8.174-3.666-8.174-8.175 0-4.12 3.08-7.574 7.12-8.097l.275-.032v-.075h-.277c-.58 0-1.077-.379-1.246-.918L7.33 3.5l-.021-.132-.007-.129V2.183c0-.624.44-1.153 1.046-1.28l.132-.02.129-.007h2.113zM9.667 5.999c-3.722 0-6.75 3.029-6.75 6.75 0 3.722 3.028 6.75 6.75 6.75s6.75-3.028 6.75-6.75c0-3.721-3.028-6.75-6.75-6.75zm.527 1.745c.119 0 .218.082.244.193l.006.057v3.711l.098.08c.202.182.343.422.401.689l.022.135.008.14c0 .72-.586 1.306-1.307 1.306S8.36 13.47 8.36 12.75c0-.37.157-.714.431-.964l.096-.079V7.994c0-.095.053-.177.131-.22l.062-.023.058-.007h1.056zm.727-5.494H8.42l.002 1h2.499v-1z" transform="translate(-20 -353) translate(0 130) translate(20 222)"/>
                </g>
            </g>
        </g>
    </g>
</svg>
