<svg xmlns="http://www.w3.org/2000/svg" xmlns:xlink="http://www.w3.org/1999/xlink" width="360" height="170" viewBox="0 0 360 170">
    <defs>
        <linearGradient id="km7tf7lkhd" x1="-17.475%" x2="69.997%" y1="32.943%" y2="74.824%">
            <stop offset="0%" stop-color="#FFF" stop-opacity=".539"/>
            <stop offset="100%" stop-color="#FFF" stop-opacity="0"/>
        </linearGradient>
        <linearGradient id="pbh76y5alf" x1="7.683%" x2="69.481%" y1="14.68%" y2="85.403%">
            <stop offset="0%" stop-color="#FFF"/>
            <stop offset="100%" stop-color="#FFF" stop-opacity=".365"/>
        </linearGradient>
        <linearGradient id="khdv8rgyxi" x1="49.998%" x2="49.998%" y1="99.451%" y2=".003%">
            <stop offset="1%" stop-color="#E9A9F8"/>
            <stop offset="52%" stop-color="#E49EFB"/>
            <stop offset="100%" stop-color="#DE90FF"/>
        </linearGradient>
        <linearGradient id="hndh7xtlrj" x1="49.998%" x2="49.998%" y1="99.449%" y2=".003%">
            <stop offset="1%" stop-color="#E9A9F8"/>
            <stop offset="52%" stop-color="#E49EFB"/>
            <stop offset="100%" stop-color="#DE90FF"/>
        </linearGradient>
        <linearGradient id="m1m6506u9k" x1="50%" x2="50%" y1="100%" y2="0%">
            <stop offset="1%" stop-color="#E9A9F8"/>
            <stop offset="52%" stop-color="#E49EFB"/>
            <stop offset="100%" stop-color="#DE90FF"/>
        </linearGradient>
        <linearGradient id="9nilaybiil" x1="50%" x2="50%" y1="100.003%" y2=".003%">
            <stop offset="1%" stop-color="#E9A9F8"/>
            <stop offset="52%" stop-color="#E49EFB"/>
            <stop offset="100%" stop-color="#DE90FF"/>
        </linearGradient>
        <linearGradient id="r4d7lp1hcm" x1="50%" x2="50%" y1="100%" y2="0%">
            <stop offset="1%" stop-color="#E9A9F8"/>
            <stop offset="52%" stop-color="#E49EFB"/>
            <stop offset="100%" stop-color="#DE90FF"/>
        </linearGradient>
        <linearGradient id="lymnpcz6xn" x1="57.317%" x2="45.674%" y1="56.614%" y2="45.687%">
            <stop offset="0%" stop-color="#FFF" stop-opacity="0"/>
            <stop offset="100%" stop-color="#5B7FFE"/>
        </linearGradient>
        <path id="84lnd06t7a" d="M10 0h340c5.523 0 10 4.477 10 10v160H0V10C0 4.477 4.477 0 10 0z"/>
        <path id="kwahvl27zc" d="M0 0H360V170H0z"/>
        <path id="ya55tg9y9g" d="M0 0H360V170H0z"/>
    </defs>
    <g fill="none" fill-rule="evenodd">
        <g>
            <g transform="translate(0 -130) translate(0 130)">
                <mask id="ir8fhogk5b" fill="#fff">
                    <use xlink:href="#84lnd06t7a"/>
                </mask>
                <use fill="#3A5EDD" xlink:href="#84lnd06t7a"/>
                <g mask="url(#ir8fhogk5b)">
                    <g>
                        <mask id="eywomdpz3e" fill="#fff">
                            <use xlink:href="#kwahvl27zc"/>
                        </mask>
                        <use fill="#3A5EDD" fill-opacity="0" xlink:href="#kwahvl27zc"/>
                        <path fill="url(#km7tf7lkhd)" d="M196 32l126.241 106.227c7.607 6.4 8.584 17.756 2.184 25.362-3.42 4.065-8.461 6.411-13.773 6.411H196V32z" mask="url(#eywomdpz3e)" opacity=".3" transform="matrix(-1 0 0 1 556 0)"/>
                        <path fill="url(#pbh76y5alf)" d="M-34 32L92.241 138.227c7.607 6.4 8.584 17.756 2.184 25.362-3.42 4.065-8.461 6.411-13.773 6.411H-34V32z" mask="url(#eywomdpz3e)" opacity=".3"/>
                    </g>
                </g>
                <g mask="url(#ir8fhogk5b)">
                    <g style="mix-blend-mode:luminosity">
                        <g>
                            <mask id="jt2oohctwh" fill="#fff">
                                <use xlink:href="#ya55tg9y9g"/>
                            </mask>
                            <use fill="#3A5EDD" fill-opacity="0" xlink:href="#ya55tg9y9g"/>
                            <g style="mix-blend-mode:luminosity" fill-rule="nonzero" mask="url(#jt2oohctwh)">
                                <g transform="translate(118 34)">
                                    <path fill="url(#khdv8rgyxi)" d="M174.064 31.728c0 .804-.652 1.456-1.456 1.456-.804 0-1.456-.652-1.456-1.456 0-.804.652-1.456 1.456-1.456.387-.004.76.148 1.034.422s.426.647.422 1.034z" opacity=".6"/>
                                    <path fill="#FFF" d="M211.648 66.784c.006.59-.344 1.126-.888 1.357-.543.23-1.172.11-1.592-.306-.42-.415-.547-1.042-.323-1.588.225-.546.757-.903 1.347-.903.798 0 1.447.642 1.456 1.44z" opacity=".3"/>
                                    <path fill="#FFF" d="M64.848 63.888c0 .804-.652 1.456-1.456 1.456-.804 0-1.456-.652-1.456-1.456 0-.804.652-1.456 1.456-1.456.386 0 .756.153 1.03.426.273.274.426.644.426 1.03z" opacity=".4"/>
                                    <path fill="url(#hndh7xtlrj)" d="M64.112 8.832c.006.59-.344 1.126-.888 1.357-.543.23-1.172.11-1.592-.306-.42-.415-.547-1.042-.323-1.588.225-.546.757-.903 1.347-.903.385-.004.755.146 1.029.416.273.27.427.64.427 1.024z" opacity=".6"/>
                                    <path fill="url(#m1m6506u9k)" d="M29.984 35.184c0 .804-.652 1.456-1.456 1.456-.804 0-1.456-.652-1.456-1.456 0-.804.652-1.456 1.456-1.456.804 0 1.456.652 1.456 1.456z" opacity=".6"/>
                                    <path fill="url(#9nilaybiil)" d="M43.92 57.76c0 .802-.649 1.453-1.45 1.456-.803.003-1.456-.643-1.462-1.445-.006-.802.638-1.458 1.44-1.467.389-.004.763.147 1.04.42.276.274.432.647.432 1.036z" opacity=".6"/>
                                    <circle cx="176.896" cy="19.552" r="2.24" fill="url(#m1m6506u9k)" opacity=".6"/>
                                    <circle cx="158.312" cy="57.24" r="2.24" fill="#FFF" opacity=".223"/>
                                    <circle cx="22.964" cy="121.55" r="2.24" fill="#FFF" opacity=".1" transform="rotate(-80.82 22.964 121.55)"/>
                                    <path fill="#FFF" d="M4.48 80.816c0 1.237-1.003 2.24-2.24 2.24-1.237 0-2.24-1.003-2.24-2.24 0-1.237 1.003-2.24 2.24-2.24 1.237 0 2.24 1.003 2.24 2.24z" opacity=".1"/>
                                    <circle cx="108.944" cy="2.24" r="2.24" fill="url(#m1m6506u9k)" opacity=".6"/>
                                    <path fill="url(#m1m6506u9k)" d="M49.264 28.08c0 1.237-1.003 2.24-2.24 2.24-1.237 0-2.24-1.003-2.24-2.24 0-1.237 1.003-2.24 2.24-2.24 1.237 0 2.24 1.003 2.24 2.24z" opacity=".6"/>
                                    <circle cx="189.152" cy="43.968" r="2.24" fill="url(#r4d7lp1hcm)" opacity=".6"/>
                                </g>
                            </g>
                            <g style="mix-blend-mode:luminosity" mask="url(#jt2oohctwh)">
                                <g>
                                    <path fill="#DCDCDC" fill-rule="nonzero" d="M1.509 69.054C.727 69.6.26 70.494.26 71.449c0 .954.466 1.848 1.248 2.395 1.604 1.317 2.826 2.083 4.478.766 1.653-1.317 3.689-5.532 2.084-6.85-1.605-1.317-4.91-.024-6.562 1.294z" opacity=".6" transform="translate(145 50)"/>
                                    <g opacity=".83">
                                        <path fill="#C5F9FF" fill-rule="nonzero" d="M1.509 2.634C.727 3.181.26 4.075.26 5.03c0 .955.466 1.849 1.248 2.395 1.604 1.318 3.065 1.964 4.79.647 1.724-1.317 3.28-5.125 1.652-6.562C6.323.072 3.161 1.317 1.51 2.634z" opacity=".67" transform="translate(145 50) translate(0 59.594)"/>
                                    </g>
                                    <g opacity=".67">
                                        <path fill="#C5F9FF" fill-rule="nonzero" d="M1.509 1.758C.727 2.304.26 3.198.26 4.153.26 5.107.727 6 1.509 6.548c1.255 1.46 3.435 1.682 4.957.503C8.095 5.757 9.46 2.26 7.856.92 6.25-.422 3.16.488 1.509 1.758z" opacity=".73" transform="translate(145 50) translate(0 53.597)"/>
                                    </g>
                                    <g opacity=".5">
                                        <path fill="#C5F9FF" fill-rule="nonzero" d="M1.509 2.165C.736 2.718.279 3.61.279 4.56s.457 1.842 1.23 2.395c1.384 1.413 3.607 1.567 5.173.36 1.629-1.294 2.682-4.48 1.054-5.797C5.729.412 3.246.67 1.509 2.165z" opacity=".8" transform="translate(145 50) translate(0 46.412)"/>
                                    </g>
                                    <g opacity=".33">
                                        <path fill="#DCDCDC" fill-rule="nonzero" d="M1.509 1.317C.736 1.87.279 2.762.279 3.712s.457 1.842 1.23 2.395C3.012 7.5 5.3 7.6 6.92 6.347 8.55 5.029 9.316 2.203 7.64.887c-1.928-1.173-4.386-1-6.131.43z" opacity=".87" transform="translate(145 50) translate(0 40.434)"/>
                                    </g>
                                    <g opacity=".17">
                                        <path fill="#DCDCDC" fill-rule="nonzero" d="M1.509 1.676C.736 2.23.279 3.121.279 4.071s.457 1.842 1.23 2.395c1.652 1.321 4 1.321 5.652 0 .816-.566 1.332-1.473 1.402-2.464.07-.992-.314-1.961-1.043-2.637C5.664.142 3.228.268 1.51 1.676z" opacity=".93" transform="translate(145 50) translate(0 33.249)"/>
                                    </g>
                                    <path fill="#B9C9FF" fill-rule="nonzero" d="M4.455 1.324C6.85-.09 8.909 1.06 8.909 3.887c-.16 3.124-1.808 5.982-4.43 7.687C2.084 13.011 0 11.862 0 9.036.174 5.903 1.828 3.04 4.455 1.324zM4.455 66.467c2.395-1.437 4.454-.287 4.454 2.539-.165 3.13-1.81 5.993-4.43 7.712C2.012 78.13 0 76.909 0 74.155c.17-3.127 1.826-5.985 4.455-7.688z" transform="translate(145 50)"/>
                                    <path fill="#C5F9FF" fill-rule="nonzero" d="M4.79 68.742V9.3C6.209 8.34 7.096 6.771 7.185 5.06c0-1.58-1.126-2.203-2.395-1.413-1.434.956-2.324 2.54-2.395 4.263 0 1.413.91 2.06 2.108 1.58v59.492c-1.254.971-2.023 2.44-2.108 4.023 0 1.557 1.102 2.204 2.395 1.413 1.431-.958 2.32-2.541 2.395-4.263 0-1.556-1.03-2.179-2.395-1.413z" transform="translate(145 50)"/>
                                </g>
                            </g>
                            <g mask="url(#jt2oohctwh)">
                                <g transform="matrix(-1 0 0 1 367 -8)">
                                    <path fill="#B9C9FF" fill-rule="nonzero" d="M253.673 94.132l-98.847-57.506c-1.445-.835-3.226-.835-4.672 0L2.347 121.251C.895 122.084 0 123.63 0 125.305c0 1.675.895 3.221 2.347 4.054l94.524 54.596c4.72 2.727 10.536 2.727 15.256 0l141.531-81.73c1.446-.832 2.339-2.373 2.342-4.042.003-1.67-.884-3.214-2.327-4.051z"/>
                                    <path fill="url(#lymnpcz6xn)" fill-rule="nonzero" opacity=".63" style="mix-blend-mode:multiply" d="M116.347 182L244 108.835 217.913 94 93 167.05z"/>
                                    <path stroke="#0125A4" stroke-width="2" d="M90.5 52L90.5 90M23 125.365L93.423 166 218 92.613 148.324 52z"/>
                                    <path fill="#86A1FF" fill-rule="nonzero" d="M132.936 16.042c-.802-1.04-12.042-7.85-12.042-7.85v.06c-2.305-2.605-6.581-1.69-12.136 3.245 0 0-.195-5.422-6.552-6.293-6.357-.87-8.177 2.08-8.177 2.08S91.862-2.991 79.134.868c-11.558 3.504-9.947 15.396-9.947 15.396s-7.224-1.844-12.952 6.248c-5.729 8.093-5.317 17.558-5.317 17.558S38.761 44.562 37.244 55.79c-.131.979-.21 1.964-.239 2.951v.288c-.043 2.421.17 4.84.636 7.215.236 1.38 1.062 2.581 2.254 3.275L52.73 77c.396-3.259-.055-6.566-1.307-9.59l63.568-37.684s4.862-4.367 6.906-10.15l4.89-1.292s6.95-1.195 6.148-2.242z"/>
                                    <path fill="#ACBEFF" fill-rule="nonzero" d="M59.546 75.467l68.549-39.234s8.382-7.259 7.884-15.406c-.499-8.147-5.986-9.462-14.192-2.42 0 0-.169-6.825-6.646-6.16-6.477.664-8.931 4.839-8.931 4.839S107.5 4.95 94.56 8.729c-6.783 1.877-11.83 7.482-12.917 14.344 0 0-7.327-1.805-13.137 6.118-5.81 7.923-5.392 17.19-5.392 17.19s-12.28 4.384-13.84 15.385c-1.561 11 3.787 15.955 10.272 13.701z"/>
                                    <path fill="#395DDC" fill-rule="nonzero" d="M163.23 112l13.072 6.481c1 .499 1.652 1.525 1.696 2.67.044 1.144-.527 2.22-1.485 2.8l-30.952 18.626c-1.391.837-3.175.395-4.045-1.004L134 129.51"/>
                                    <path fill="#ACBEFF" fill-rule="nonzero" d="M92.562 81.12l104.376-60.487c1.457-.845 3.25-.844 4.707.002 1.456.845 2.353 2.407 2.355 4.099V87.66c0 1.408-.746 2.709-1.958 3.413L90.786 155.662c-.781.451-1.742.45-2.522-.002-.78-.453-1.262-1.29-1.264-2.195V90.802c0-3.995 2.12-7.686 5.562-9.681z"/>
                                    <path fill="#003A7F" fill-rule="nonzero" d="M196.471 25.303L95.543 83.988c-2.19 1.276-3.541 3.636-3.543 6.191v47.242c0 .92.487 1.77 1.276 2.232.788.46 1.76.463 2.55.005l102.91-59.675c.78-.453 1.262-1.292 1.264-2.201V27.386c-.004-.848-.452-1.63-1.176-2.058-.725-.428-1.62-.438-2.353-.025z"/>
                                    <ellipse cx="154.204" cy="111.828" fill="#4E72F1" fill-rule="nonzero" rx="2.523" ry="2.197" transform="rotate(-79.1 154.204 111.828)"/>
                                    <path stroke="#6587FF" d="M172.5 50L172.5 90M161.5 56L161.5 96M146.5 66L146.5 106M134.5 72L134.5 112M124.5 78L124.5 118"/>
                                    <path stroke="#FFF" d="M171 83.91s-2.56-12.567-7.685-10.265c-5.439 2.412-.488 12.773-6.387 15.86-5.708 2.984-4.053-18.874-10.659-16.293-5.898 2.303-3.697 11.13-3.704 15.648 0 2.082.73 9.81-3.332 10.998-7.065 2.068-4.134-19.203-13.233-14.371"/>
                                    <circle cx="171" cy="84" r="1" fill="#FFF" fill-rule="nonzero"/>
                                    <circle cx="127" cy="86" r="1" fill="#FFF" fill-rule="nonzero"/>
                                    <circle cx="151" cy="78" r="1" fill="#FFF" fill-rule="nonzero"/>
                                    <circle cx="143" cy="88" r="1" fill="#FFF" fill-rule="nonzero"/>
                                </g>
                            </g>
                            <g mask="url(#jt2oohctwh)">
                                <g>
                                    <path fill="#DCDCDC" fill-rule="nonzero" d="M1.509 69.054C.727 69.6.26 70.494.26 71.449c0 .954.466 1.848 1.248 2.395 1.604 1.317 2.826 2.083 4.478.766 1.653-1.317 3.689-5.532 2.084-6.85-1.605-1.317-4.91-.024-6.562 1.294z" opacity=".6" transform="translate(310 87)"/>
                                    <g opacity=".83">
                                        <path fill="#C5F9FF" fill-rule="nonzero" d="M1.509 2.634C.727 3.181.26 4.075.26 5.03c0 .955.466 1.849 1.248 2.395 1.604 1.318 3.065 1.964 4.79.647 1.724-1.317 3.28-5.125 1.652-6.562C6.323.072 3.161 1.317 1.51 2.634z" opacity=".67" transform="translate(310 87) translate(0 59.594)"/>
                                    </g>
                                    <g opacity=".67">
                                        <path fill="#C5F9FF" fill-rule="nonzero" d="M1.509 1.758C.727 2.304.26 3.198.26 4.153.26 5.107.727 6 1.509 6.548c1.255 1.46 3.435 1.682 4.957.503C8.095 5.757 9.46 2.26 7.856.92 6.25-.422 3.16.488 1.509 1.758z" opacity=".73" transform="translate(310 87) translate(0 53.597)"/>
                                    </g>
                                    <g opacity=".5">
                                        <path fill="#C5F9FF" fill-rule="nonzero" d="M1.509 2.165C.736 2.718.279 3.61.279 4.56s.457 1.842 1.23 2.395c1.384 1.413 3.607 1.567 5.173.36 1.629-1.294 2.682-4.48 1.054-5.797C5.729.412 3.246.67 1.509 2.165z" opacity=".8" transform="translate(310 87) translate(0 46.412)"/>
                                    </g>
                                    <g opacity=".33">
                                        <path fill="#C5F9FF" fill-rule="nonzero" d="M1.509 1.317C.736 1.87.279 2.762.279 3.712s.457 1.842 1.23 2.395C3.012 7.5 5.3 7.6 6.92 6.347 8.55 5.029 9.316 2.203 7.64.887c-1.928-1.173-4.386-1-6.131.43z" opacity=".87" transform="translate(310 87) translate(0 40.434)"/>
                                    </g>
                                    <g opacity=".17">
                                        <path fill="#C5F9FF" fill-rule="nonzero" d="M1.509 1.676C.736 2.23.279 3.121.279 4.071s.457 1.842 1.23 2.395c1.652 1.321 4 1.321 5.652 0 .816-.566 1.332-1.473 1.402-2.464.07-.992-.314-1.961-1.043-2.637C5.664.142 3.228.268 1.51 1.676z" opacity=".93" transform="translate(310 87) translate(0 33.249)"/>
                                    </g>
                                    <path fill="#839CFF" fill-rule="nonzero" d="M4.455 1.324C6.85-.09 8.909 1.06 8.909 3.887c-.16 3.124-1.808 5.982-4.43 7.687C2.084 13.011 0 11.862 0 9.036.174 5.903 1.828 3.04 4.455 1.324zM4.455 66.467c2.395-1.437 4.454-.287 4.454 2.539-.165 3.13-1.81 5.993-4.43 7.712C2.012 78.13 0 76.909 0 74.155c.17-3.127 1.826-5.985 4.455-7.688z" transform="translate(310 87)"/>
                                    <path fill="#C5F9FF" fill-rule="nonzero" d="M4.79 68.742V9.3C6.209 8.34 7.096 6.771 7.185 5.06c0-1.58-1.126-2.203-2.395-1.413-1.434.956-2.324 2.54-2.395 4.263 0 1.413.91 2.06 2.108 1.58v59.492c-1.254.971-2.023 2.44-2.108 4.023 0 1.557 1.102 2.204 2.395 1.413 1.431-.958 2.32-2.541 2.395-4.263 0-1.556-1.03-2.179-2.395-1.413z" transform="translate(310 87)"/>
                                </g>
                            </g>
                        </g>
                    </g>
                </g>
            </g>
        </g>
    </g>
</svg>
