<svg xmlns="http://www.w3.org/2000/svg" xmlns:xlink="http://www.w3.org/1999/xlink" width="360" height="170" viewBox="0 0 360 170">
    <defs>
        <linearGradient id="z97vmbbbvd" x1="-17.475%" x2="69.997%" y1="32.943%" y2="74.824%">
            <stop offset="0%" stop-color="#FFF" stop-opacity=".539"/>
            <stop offset="100%" stop-color="#FFF" stop-opacity="0"/>
        </linearGradient>
        <linearGradient id="flqltto82f" x1="7.683%" x2="69.481%" y1="14.68%" y2="85.403%">
            <stop offset="0%" stop-color="#FFF"/>
            <stop offset="100%" stop-color="#FFF" stop-opacity=".365"/>
        </linearGradient>
        <linearGradient id="t06y1ys4fi" x1="47.153%" x2="65.346%" y1="57.249%" y2="33.491%">
            <stop offset="0%" stop-color="#FFF" stop-opacity="0"/>
            <stop offset="100%" stop-color="#00769F"/>
        </linearGradient>
        <linearGradient id="80ls627rlj" x1="29.753%" x2="71.904%" y1="82.074%" y2="39.409%">
            <stop offset="0%" stop-color="#FFF" stop-opacity="0"/>
            <stop offset="100%" stop-color="#7534BD"/>
        </linearGradient>
        <linearGradient id="iga4ou78fk" x1="47.153%" x2="65.346%" y1="55.909%" y2="36.542%">
            <stop offset="0%" stop-color="#FFF" stop-opacity="0"/>
            <stop offset="100%" stop-color="#00769F"/>
        </linearGradient>
        <linearGradient id="g35pq95hol" x1="29.753%" x2="71.904%" y1="75.619%" y2="41.541%">
            <stop offset="0%" stop-color="#FFF" stop-opacity="0"/>
            <stop offset="100%" stop-color="#7534BD"/>
        </linearGradient>
        <linearGradient id="syox6hn8dm" x1="29.753%" x2="71.904%" y1="72.252%" y2="42.652%">
            <stop offset="0%" stop-color="#FFF" stop-opacity="0"/>
            <stop offset="100%" stop-color="#7534BD"/>
        </linearGradient>
        <linearGradient id="qbdq7uddpn" x1="50%" x2="50%" y1="100%" y2="0%">
            <stop offset="1%" stop-color="#E9A9F8"/>
            <stop offset="52%" stop-color="#E49EFB"/>
            <stop offset="100%" stop-color="#DE90FF"/>
        </linearGradient>
        <linearGradient id="umzzmf8xho" x1="50%" x2="50%" y1="100%" y2="0%">
            <stop offset="1%" stop-color="#E9A9F8"/>
            <stop offset="52%" stop-color="#E49EFB"/>
            <stop offset="100%" stop-color="#DE90FF"/>
        </linearGradient>
        <path id="fv720cv00a" d="M10 0h340c5.523 0 10 4.477 10 10v160H0V10C0 4.477 4.477 0 10 0z"/>
        <path id="j4xr43pmmc" d="M0 0H360V170H0z"/>
        <path id="3s6ukelgdg" d="M0 0H360V170H0z"/>
        <filter id="bzts22ihcp" width="154.2%" height="156.6%" x="-27.1%" y="-28.3%" filterUnits="objectBoundingBox">
            <feGaussianBlur in="SourceGraphic" stdDeviation="1"/>
        </filter>
    </defs>
    <g fill="none" fill-rule="evenodd">
        <g>
            <g>
                <g transform="translate(-780 -130) translate(0 130) translate(780)">
                    <mask id="nlz4vgsi1b" fill="#fff">
                        <use xlink:href="#fv720cv00a"/>
                    </mask>
                    <use fill="#8E4DD6" xlink:href="#fv720cv00a"/>
                    <g mask="url(#nlz4vgsi1b)">
                        <g>
                            <mask id="0jyf24b11e" fill="#fff">
                                <use xlink:href="#j4xr43pmmc"/>
                            </mask>
                            <use fill="#3A5EDD" fill-opacity="0" xlink:href="#j4xr43pmmc"/>
                            <path fill="url(#z97vmbbbvd)" d="M196 32l126.241 106.227c7.607 6.4 8.584 17.756 2.184 25.362-3.42 4.065-8.461 6.411-13.773 6.411H196V32z" mask="url(#0jyf24b11e)" opacity=".3" transform="matrix(-1 0 0 1 556 0)"/>
                            <path fill="url(#flqltto82f)" d="M-34 32L92.241 138.227c7.607 6.4 8.584 17.756 2.184 25.362-3.42 4.065-8.461 6.411-13.773 6.411H-34V32z" mask="url(#0jyf24b11e)" opacity=".3"/>
                        </g>
                    </g>
                    <g mask="url(#nlz4vgsi1b)">
                        <g style="mix-blend-mode:luminosity">
                            <mask id="fu6bg181hh" fill="#fff">
                                <use xlink:href="#3s6ukelgdg"/>
                            </mask>
                            <use fill="#3A5EDD" fill-opacity="0" xlink:href="#3s6ukelgdg"/>
                            <g mask="url(#fu6bg181hh)">
                                <g transform="translate(114 -24)">
                                    <path fill="#CA9AFF" fill-rule="nonzero" d="M123.753 60.8L3.803 130.745c-2.375 1.383-3.826 3.937-3.803 6.69.024 2.753 1.519 5.282 3.916 6.624l146.805 82.398c3.606 2.022 7.992 2.06 11.63.097l112.814-60.844c2.927-1.581 4.775-4.623 4.835-7.957.057-3.333-1.682-6.438-4.551-8.122L123.753 60.8z"/>
                                    <path fill="url(#t06y1ys4fi)" fill-rule="nonzero" d="M106.041 167.652c6.7-6.882 13.904-13.253 20.28-20.402l-25.775-13.65-54.684 29.243c10.221 5.36 25.185 16.823 39.793 26.757 6.798-7.319 13.418-14.791 20.386-21.948z" opacity=".32"/>
                                    <path fill="url(#80ls627rlj)" fill-rule="nonzero" d="M64.815 137.314c11.235-8.376 22.43-16.817 34.15-24.469L74.88 100l-50.741 31.567c7.698 4.07 14.272 9.467 25.177 17.233 5.153-3.858 10.314-7.652 15.5-11.486z" opacity=".32"/>
                                    <path fill="url(#iga4ou78fk)" fill-rule="nonzero" d="M128.341 186.4c12.165-6.575 38.261-32.11 50.28-38.83l-45.836-24.37-54.739 29.437c12.708 6.664 32.722 22.837 50.295 33.763z" opacity=".32"/>
                                    <path fill="#7534BD" fill-rule="nonzero" d="M153.24 113.6l-15.275 7.364c-1.17.566-1.933 1.732-1.985 3.032-.052 1.3.615 2.522 1.736 3.18l36.217 21.143c1.627.95 3.714.45 4.735-1.135l8.803-13.681"/>
                                    <path fill="#BB7EFF" fill-rule="nonzero" d="M231.502 73.518L105.13.58c-1.268-.761-2.848-.774-4.129-.034-1.28.741-2.059 2.119-2.035 3.6v77.507c0 1.135.606 2.183 1.588 2.75l134.506 77.792c.474.274 1.058.273 1.532 0 .473-.275.764-.782.764-1.33V83.668c0-4.19-2.231-8.06-5.854-10.15z"/>
                                    <path fill="#FFF" fill-rule="nonzero" d="M107.192 7.575l119.524 68.969c2.599 1.499 4.201 4.275 4.204 7.281v55.54c0 1.082-.574 2.083-1.508 2.626-.934.543-2.085.546-3.021.007L104.485 71.88c-.926-.533-1.496-1.522-1.496-2.593V10.013c0-1.004.534-1.932 1.4-2.435.867-.503 1.935-.504 2.803-.003z"/>
                                    <ellipse cx="158.548" cy="112.586" fill="#AB643C" fill-rule="nonzero" rx="1.299" ry="1" transform="rotate(-10.9 158.548 112.586)"/>
                                    <ellipse cx="221.667" cy="78.4" fill="#659FE4" fill-rule="nonzero" rx="1.207" ry="1.6"/>
                                    <ellipse cx="217.644" cy="76" fill="#C5E9FF" fill-rule="nonzero" rx="1.207" ry="1.6"/>
                                    <path fill="#ADCEE1" fill-rule="nonzero" d="M87.114 141.6L87.106 142.581 87.492 143.2"/>
                                    <path fill="#BB7EFF" fill-rule="nonzero" d="M68.391 82.4L68.391 107.825 88.346 119.2 104.598 109.66 104.598 86.038"/>
                                    <path fill="#C998FF" fill-rule="nonzero" d="M88.506 119.2L88.506 94.17 104.598 84.8 104.598 109.685z"/>
                                    <path fill="#D0A6FF" fill-rule="nonzero" d="M84.823 72.8L68.391 82.535 88.346 94.4 104.598 84.878z"/>
                                    <path fill="#9958E1" fill-rule="nonzero" d="M70.805 86.4L70.805 91.63 86.092 100 86.092 94.867z"/>
                                    <circle cx="84.041" cy="97.177" r="1" fill="#C998FF" fill-rule="nonzero" transform="rotate(-17.06 84.041 97.177)"/>
                                    <circle cx="82.768" cy="96.435" r="1" fill="#D9B6FF" fill-rule="nonzero" transform="rotate(-17.06 82.768 96.435)"/>
                                    <path stroke="#F2F2F2" stroke-width=".25" d="M81.264 96L72.414 90.4"/>
                                    <path fill="#9958E1" fill-rule="nonzero" d="M70 94.4L70 99.633 85.287 108 85.287 102.872z"/>
                                    <circle cx="83.69" cy="104.603" r="1" fill="#C998FF" fill-rule="nonzero" transform="rotate(-17.06 83.69 104.603)"/>
                                    <circle cx="82.425" cy="103.869" r="1" fill="#D9B6FF" fill-rule="nonzero" transform="rotate(-17.06 82.425 103.87)"/>
                                    <path stroke="#F2F2F2" stroke-width=".25" d="M80.46 103.2L71.609 97.6"/>
                                    <path fill="#9958E1" fill-rule="nonzero" d="M70 101.6L70 106.833 85.287 115.2 85.287 110.072z"/>
                                    <circle cx="83.684" cy="112.025" r="1" fill="#C998FF" fill-rule="nonzero" transform="rotate(-17.06 83.684 112.025)"/>
                                    <circle cx="82.419" cy="111.283" r="1" fill="#D9B6FF" fill-rule="nonzero" transform="rotate(-17.06 82.42 111.283)"/>
                                    <path stroke="#F2F2F2" stroke-width=".25" d="M80.46 110.4L71.609 104.8"/>
                                    <path stroke="#4A0992" stroke-width=".25" d="M104.598 93.218L88.419 102.4 68.391 91.2"/>
                                    <path stroke="#4A0992" stroke-width=".25" d="M104.598 101.211L88.419 110.4 68.391 99.2"/>
                                    <path fill="#D3ACFF" fill-rule="nonzero" d="M250.23 72.413v40.659c0 1.63-.87 3.134-2.281 3.939-1.411.804-3.143.784-4.535-.053l-38.456-23.05c-1.363-.816-2.199-2.292-2.2-3.886V50.108c.007-1.617.87-3.107 2.266-3.91 1.396-.803 3.112-.797 4.502.015l38.456 22.314c1.382.803 2.237 2.282 2.248 3.886z"/>
                                    <path fill="url(#g35pq95hol)" fill-rule="nonzero" d="M191.416 203.594c6.669-4.521 13.451-8.877 20.193-13.274l-9.578-7.12-37.088 15.766c4.48 2.392 10.534 6.872 16.903 11.434 3.16-2.31 6.329-4.612 9.57-6.806z" opacity=".32"/>
                                    <path fill="url(#syox6hn8dm)" fill-rule="nonzero" d="M122 194l-64.911-36L41 165c4.481 2.392 60.63 32.438 67 37 3.16-2.31 7.258-3.603 14-8z" opacity=".32"/>
                                    <path fill="#7534BD" fill-rule="nonzero" d="M216.379 164.393c-.056-.233-.16-.452-.305-.642-.266-.324-.583-.602-.939-.824-4.784-3.236-11.412-4.117-16.467-.963-1.153.724-2.874 2.363-2.19 3.911.395.898 1.597 1.425 2.47 1.787 2.781 1.102 5.688 1.86 8.653 2.256 1.07.181 2.158.363 3.236.461 1.517.146 3.003-.49 3.944-1.688.725-.955 1.935-2.89 1.598-4.298z"/>
                                    <path fill="#C591FF" fill-rule="nonzero" d="M196.322 165.523s4.382 3.859 11.955 3.296c7.573-.562 8.16-4.019 8.16-4.019s-1.96 24.405-2.993 24.823c-1.034.418-4.903 2.235-6.771 2.371-1.869.137-7.772-2.162-7.92-2.797-.15-.635-2.431-23.674-2.431-23.674z"/>
                                    <path fill="#7231BA" fill-rule="nonzero" d="M197.085 129.006c-.233-.467-.956-.057-.715.41 5.212 10.374 6.226 22.052 7.165 33.393.042.517.873.525.831 0-.947-11.497-1.995-23.298-7.28-33.803z"/>
                                    <path fill="#7534BD" fill-rule="nonzero" d="M196.65 129.6s1.496 5.275-.05 7.912c-1.546 2.638-2.819 3.16-.974 6.433 1.845 3.272 6.781 3.715 7.106 6.223.325 2.51-2.357-16.09-6.081-20.568z"/>
                                    <path fill="#7231BA" fill-rule="nonzero" d="M213.153 138.658c-3.846 8.285-6.014 17.29-6.371 26.465 0 .64.947.632.971 0 .338-9.001 2.449-17.838 6.205-25.973.303-.566-.534-1.075-.805-.492z"/>
                                    <path fill="#7534BD" fill-rule="nonzero" d="M214.024 141.689c0-.528-.124-1.6-.066-2.489l-.58.352c-1.969 4.634-4.915 15.519-5.792 18.848 1.2-2.497 6.107-2.841 7.547-6.403.636-1.511.665-3.198.083-4.73-.71-1.783-1.113-3.668-1.192-5.578z"/>
                                    <path stroke="#7534BD" stroke-width="4" d="M222.874 68L210 77.143 221.542 92.8M233.838 74.4L242.989 92.366 230.115 98.4"/>
                                    <path stroke="#9352DB" stroke-width="4" d="M109.425 18.4L182.644 60"/>
                                    <path stroke="#BF86FF" stroke-width="4" d="M110.23 29.6L122.299 36"/>
                                    <path stroke="#AA69F2" stroke-width="4" d="M125.517 39.2L191.494 75.2"/>
                                    <path stroke="#BF86FF" stroke-width="4" d="M109.425 40L135.172 53.6"/>
                                    <path stroke="#9352DB" stroke-width="4" d="M139.195 56L194.713 85.6"/>
                                    <g fill-rule="nonzero">
                                        <path fill="#7534BD" d="M41.788 56.911L1.852 81.502c-.772.44-1.249 1.261-1.249 2.151 0 .89.477 1.712 1.249 2.152l60.311 34.551c1.712.992 3.821.992 5.534 0l39.807-23.3c2.895-2.366 2.702-6.84 0-7.034L47.45 56.825c-1.765-.997-3.928-.964-5.662.086z" transform="translate(56.397 72.9)"/>
                                        <path fill="#FFF" d="M43.24 53.913L3.836 78.579c-.761.44-1.232 1.263-1.232 2.154s.47 1.714 1.232 2.154l59.574 34.468c1.69.993 3.771.993 5.46 0l39.215-23.244c.94-.55 1.52-1.568 1.52-2.671 0-1.103-.58-2.122-1.52-2.672L48.828 53.826c-1.742-.998-3.876-.965-5.587.087z" transform="translate(56.397 72.9)"/>
                                        <path fill="#D3AAFF" d="M41.087 62.497l-14.622 8.556c-.534.301-.862.847-.862 1.436 0 .59.328 1.135.862 1.436l52.219 28.52c1.594.873 3.559.873 5.153 0 3.371-1.854 9.169-5.174 12.733-7.232.642-.369 1.033-1.03 1.033-1.741 0-.713-.391-1.373-1.033-1.742L44.029 62.477c-.91-.51-2.04-.502-2.942.02zM39.75 85.455l17.941 10.63c.564.332.912.956.912 1.632 0 .676-.348 1.3-.912 1.632l-10.566 6.417c-.74.445-1.65.445-2.388 0L26.373 94.74c-.475-.277-.77-.8-.77-1.368 0-.567.295-1.09.77-1.367l11.03-6.616c.74-.408 1.63-.383 2.347.066z" transform="translate(56.397 72.9)"/>
                                        <path fill="#4A0992" d="M43.717 53.421S60.64 1.497 60.554 1.497c-.087 0 .52-2.319 3.51-.982l63.969 36.636s3.098 1.232 2.492 4.01c-.607 2.778-16.556 50.817-16.556 50.817-.675.937-1.904 1.343-3.034 1.003-1.95-.585-65.723-36.636-65.723-36.636-1.23-.433-1.888-1.72-1.495-2.924z" transform="translate(56.397 72.9)"/>
                                        <path fill="#D3AAFF" d="M61.22 4.1L126.603 42.545 112.83 88.1 46.603 50.779z" transform="translate(56.397 72.9)"/>
                                    </g>
                                </g>
                            </g>
                            <g mask="url(#fu6bg181hh)">
                                <g>
                                    <g style="mix-blend-mode:normal" fill-rule="nonzero" transform="rotate(180 180 85)">
                                        <path fill="#FFF" d="M209.563 64.472c.006.531-.322 1.013-.832 1.22-.51.207-1.1.099-1.493-.274-.393-.374-.513-.938-.303-1.43.21-.49.71-.81 1.263-.81.748 0 1.357.577 1.365 1.294z" opacity=".3"/>
                                        <path fill="#FFF" d="M10.24 138.466c0 .53-.333 1.007-.844 1.21-.51.202-1.097.09-1.487-.284-.39-.375-.508-.938-.296-1.427.211-.49.709-.808 1.261-.808.754 0 1.365.586 1.365 1.31z" opacity=".5"/>
                                        <path fill="#FFF" d="M64.166 61.213c0 .723-.611 1.31-1.365 1.31s-1.366-.587-1.366-1.31c0-.723.612-1.31 1.366-1.31.362 0 .71.139.965.384.256.246.4.579.4.926z" opacity=".4"/>
                                        <path fill="url(#qbdq7uddpn)" d="M29.353 34.371c0 .723-.612 1.31-1.366 1.31-.754 0-1.365-.587-1.365-1.31 0-.723.611-1.31 1.365-1.31s1.366.587 1.366 1.31z" opacity=".6"/>
                                        <ellipse cx="175.091" cy="18.986" fill="url(#umzzmf8xho)" opacity=".6" rx="2.389" ry="2.291"/>
                                        <ellipse cx="157.343" cy="54.994" fill="#FFF" opacity=".223" rx="2.389" ry="2.291"/>
                                        <path fill="#FFF" d="M40.274 158.434c0 1.266-1.07 2.291-2.389 2.291-1.32 0-2.389-1.025-2.389-2.291 0-1.265 1.07-2.291 2.39-2.291 1.319 0 2.388 1.026 2.388 2.291z" opacity=".2"/>
                                        <path fill="#FFF" d="M4.778 77.908c0 1.265-1.07 2.291-2.389 2.291C1.07 80.199 0 79.173 0 77.908c0-1.266 1.07-2.292 2.39-2.292 1.319 0 2.388 1.026 2.388 2.292z" opacity=".1"/>
                                        <ellipse cx="108.195" cy="2.619" fill="url(#umzzmf8xho)" opacity=".6" rx="2.389" ry="2.291"/>
                                    </g>
                                    <g style="mix-blend-mode:screen" transform="rotate(180 180 85) translate(44 34)">
                                        <ellipse fill="#E2E9FF" opacity=".4" style="mix-blend-mode:overlay" cx="157.563" cy="103.02" rx="7.386" ry="7.418"/>
                                        <ellipse fill="#E2E9FF" opacity=".4" style="mix-blend-mode:overlay" cx="36.069" cy="107.259" rx="5.539" ry="5.298"/>
                                        <ellipse fill="#E2E9FF" opacity=".3" style="mix-blend-mode:overlay" cx="112.88" cy="71.937" rx="3.324" ry="3.179"/>
                                        <ellipse fill="#6A87EB" opacity=".5" style="mix-blend-mode:overlay" cx="126.912" cy="20.366" rx="3.324" ry="3.179"/>
                                        <ellipse fill="#829FFF" opacity=".2" style="mix-blend-mode:overlay" cx="26.468" cy="5.531" filter="url(#bzts22ihcp)" rx="5.539" ry="5.298"/>
                                        <ellipse fill="#E2E9FF" opacity=".1" style="mix-blend-mode:overlay" cx="102.909" cy="116.089" rx="3.693" ry="3.532"/>
                                        <ellipse fill="#BFCEFF" opacity=".1" style="mix-blend-mode:overlay" cx="3.572" cy="47.211" rx="3.324" ry="3.179"/>
                                        <ellipse fill="#BFCEFF" opacity=".3" style="mix-blend-mode:overlay" cx="60.811" cy="140.108" rx="4.431" ry="4.239"/>
                                    </g>
                                </g>
                            </g>
                            <g style="mix-blend-mode:luminosity" mask="url(#fu6bg181hh)">
                                <g>
                                    <path fill="#DCDCDC" fill-rule="nonzero" d="M1.509 69.054C.727 69.6.26 70.494.26 71.449c0 .954.466 1.848 1.248 2.395 1.604 1.317 2.826 2.083 4.478.766 1.653-1.317 3.689-5.532 2.084-6.85-1.605-1.317-4.91-.024-6.562 1.294z" opacity=".6" transform="translate(308 91)"/>
                                    <g opacity=".83">
                                        <path fill="#DCDCDC" fill-rule="nonzero" d="M1.509 2.634C.727 3.181.26 4.075.26 5.03c0 .955.466 1.849 1.248 2.395 1.604 1.318 3.065 1.964 4.79.647 1.724-1.317 3.28-5.125 1.652-6.562C6.323.072 3.161 1.317 1.51 2.634z" opacity=".67" transform="translate(308 91) translate(0 59.594)"/>
                                    </g>
                                    <g opacity=".67">
                                        <path fill="#DCDCDC" fill-rule="nonzero" d="M1.509 1.758C.727 2.304.26 3.198.26 4.153.26 5.107.727 6 1.509 6.548c1.255 1.46 3.435 1.682 4.957.503C8.095 5.757 9.46 2.26 7.856.92 6.25-.422 3.16.488 1.509 1.758z" opacity=".73" transform="translate(308 91) translate(0 53.597)"/>
                                    </g>
                                    <g opacity=".5">
                                        <path fill="#DCDCDC" fill-rule="nonzero" d="M1.509 2.165C.736 2.718.279 3.61.279 4.56s.457 1.842 1.23 2.395c1.384 1.413 3.607 1.567 5.173.36 1.629-1.294 2.682-4.48 1.054-5.797C5.729.412 3.246.67 1.509 2.165z" opacity=".8" transform="translate(308 91) translate(0 46.412)"/>
                                    </g>
                                    <g opacity=".33">
                                        <path fill="#DCDCDC" fill-rule="nonzero" d="M1.509 1.317C.736 1.87.279 2.762.279 3.712s.457 1.842 1.23 2.395C3.012 7.5 5.3 7.6 6.92 6.347 8.55 5.029 9.316 2.203 7.64.887c-1.928-1.173-4.386-1-6.131.43z" opacity=".87" transform="translate(308 91) translate(0 40.434)"/>
                                    </g>
                                    <g opacity=".17">
                                        <path fill="#DCDCDC" fill-rule="nonzero" d="M1.509 1.676C.736 2.23.279 3.121.279 4.071s.457 1.842 1.23 2.395c1.652 1.321 4 1.321 5.652 0 .816-.566 1.332-1.473 1.402-2.464.07-.992-.314-1.961-1.043-2.637C5.664.142 3.228.268 1.51 1.676z" opacity=".93" transform="translate(308 91) translate(0 33.249)"/>
                                    </g>
                                    <path fill="#2AFBFE" fill-rule="nonzero" d="M4.455 1.324C6.85-.09 8.909 1.06 8.909 3.887c-.16 3.124-1.808 5.982-4.43 7.687C2.084 13.011 0 11.862 0 9.036.174 5.903 1.828 3.04 4.455 1.324zM4.455 66.467c2.395-1.437 4.454-.287 4.454 2.539-.165 3.13-1.81 5.993-4.43 7.712C2.012 78.13 0 76.909 0 74.155c.17-3.127 1.826-5.985 4.455-7.688z" transform="translate(308 91)"/>
                                    <path fill="#C5F9FF" fill-rule="nonzero" d="M4.79 68.742V9.3C6.209 8.34 7.096 6.771 7.185 5.06c0-1.58-1.126-2.203-2.395-1.413-1.434.956-2.324 2.54-2.395 4.263 0 1.413.91 2.06 2.108 1.58v59.492c-1.254.971-2.023 2.44-2.108 4.023 0 1.557 1.102 2.204 2.395 1.413 1.431-.958 2.32-2.541 2.395-4.263 0-1.556-1.03-2.179-2.395-1.413z" transform="translate(308 91)"/>
                                </g>
                            </g>
                        </g>
                    </g>
                </g>
            </g>
        </g>
    </g>
</svg>
