<svg xmlns="http://www.w3.org/2000/svg" xmlns:xlink="http://www.w3.org/1999/xlink" width="360" height="170" viewBox="0 0 360 170">
    <defs>
        <linearGradient id="i1udyakt1d" x1="-17.475%" x2="69.997%" y1="32.943%" y2="74.824%">
            <stop offset="0%" stop-color="#FFF" stop-opacity=".539"/>
            <stop offset="100%" stop-color="#FFF" stop-opacity="0"/>
        </linearGradient>
        <linearGradient id="nd9rp82msf" x1="7.683%" x2="69.481%" y1="14.68%" y2="85.403%">
            <stop offset="0%" stop-color="#FFF"/>
            <stop offset="100%" stop-color="#FFF" stop-opacity=".365"/>
        </linearGradient>
        <linearGradient id="enzjdqjc2i" x1="58.188%" x2="23.542%" y1="60.489%" y2="33.769%">
            <stop offset="0%" stop-color="#FFF" stop-opacity="0"/>
            <stop offset="100%" stop-color="#0BC4B4"/>
        </linearGradient>
        <linearGradient id="832lt73b4j" x1="58.188%" x2="23.542%" y1="61.565%" y2="32.103%">
            <stop offset="0%" stop-color="#FFF" stop-opacity="0"/>
            <stop offset="100%" stop-color="#0BC4B4"/>
        </linearGradient>
        <path id="fruzbnj8ya" d="M10 0h340c5.523 0 10 4.477 10 10v160H0V10C0 4.477 4.477 0 10 0z"/>
        <path id="3jc6og7j3c" d="M0 0H360V170H0z"/>
        <path id="ix7wjsfnwg" d="M0 0H360V170H0z"/>
    </defs>
    <g fill="none" fill-rule="evenodd">
        <g>
            <g>
                <g transform="translate(-390 -130) translate(0 130) translate(390)">
                    <mask id="tbfhfis4vb" fill="#fff">
                        <use xlink:href="#fruzbnj8ya"/>
                    </mask>
                    <use fill="#30ABD6" xlink:href="#fruzbnj8ya"/>
                    <g mask="url(#tbfhfis4vb)">
                        <g>
                            <mask id="u2ct64kr5e" fill="#fff">
                                <use xlink:href="#3jc6og7j3c"/>
                            </mask>
                            <use fill="#3A5EDD" fill-opacity="0" xlink:href="#3jc6og7j3c"/>
                            <path fill="url(#i1udyakt1d)" d="M196 32l126.241 106.227c7.607 6.4 8.584 17.756 2.184 25.362-3.42 4.065-8.461 6.411-13.773 6.411H196V32z" mask="url(#u2ct64kr5e)" opacity=".3" transform="matrix(-1 0 0 1 556 0)"/>
                            <path fill="url(#nd9rp82msf)" d="M-34 32L92.241 138.227c7.607 6.4 8.584 17.756 2.184 25.362-3.42 4.065-8.461 6.411-13.773 6.411H-34V32z" mask="url(#u2ct64kr5e)" opacity=".3"/>
                        </g>
                    </g>
                    <g mask="url(#tbfhfis4vb)">
                        <g style="mix-blend-mode:luminosity">
                            <mask id="wi4zs3zplh" fill="#fff">
                                <use xlink:href="#ix7wjsfnwg"/>
                            </mask>
                            <use fill="#8E4DD6" fill-opacity="0" xlink:href="#ix7wjsfnwg"/>
                            <g mask="url(#wi4zs3zplh)">
                                <g transform="matrix(-1 0 0 1 405 -17)">
                                    <path fill="#2AE3D3" fill-rule="nonzero" d="M316.455 117.027l-123.282-71.7c-1.803-1.04-4.025-1.04-5.828 0L2.991 150.827c-1.81 1.04-2.928 2.967-2.928 5.055 0 2.087 1.117 4.016 2.928 5.054l117.918 68.073c5.887 3.399 13.14 3.399 19.027 0l176.546-101.89c1.799-1.047 2.904-2.973 2.898-5.054-.006-2.081-1.12-4.001-2.925-5.038z"/>
                                    <path fill="url(#enzjdqjc2i)" fill-rule="nonzero" d="M303.653 134.16c-17.836-10.236-7.608-2.77-16.262-8.187l-38.636 22.563 15.417 8.716c13.273-6.582 27.245-14.773 39.481-23.091z" style="mix-blend-mode:multiply"/>
                                    <path fill="#68E1FD" fill-rule="nonzero" d="M181.273 53.636c.09.173.527 1.819.909 1.473.382-.345 2.163.436 2.163.436l5.091-6.472-.672-2.11h-4.546"/>
                                    <path fill="#68E1FD" fill-rule="nonzero" d="M205.845 25.764l.482-1.682 5.346-2.918v-9.091c0-.182-5.173 3.036-5.173 3.036l-.245-.509c-.292-1.394-.824-2.726-1.573-3.936l3.763-6.955-4.781-3.636-3.582 7.172c-1.302-.298-2.656-.273-3.946.073V.428l-6.845 3.8v7.2c-1.339 1.288-2.556 2.697-3.636 4.208L181.527 13l-4.69 8.818 3.69 2.937-.318 1.49c-.47 1.588-.844 3.203-1.118 4.837l-5.455 3.018v9.09l5.228-3.117c.227 1.654.803 3.24 1.69 4.654l-3.918 6.646 4.964 3.754 3.49-6.845h4.337v6.845l6.528-3.982v-6.727c1.5-1.468 2.824-3.106 3.945-4.882l3.927 2.728 4.737-9.091-4.019-2.918.391-1.364c.373-1.046.664-2.1.91-3.127z"/>
                                    <path fill="#68E1FD" fill-rule="nonzero" d="M218.255 15.845L212.2 12.191 210.691 14.427 213.036 19.327M210.336 46.009L205.864 44.145 205.864 41.436M195.936 58.909L189.364 55.118 191.036 50.145 196.955 51.882z"/>
                                    <ellipse cx="199.635" cy="31.429" fill="#68E1FD" fill-rule="nonzero" rx="5.1" ry="2.964" transform="rotate(-68.55 199.635 31.43)"/>
                                    <path fill="#68E1FD" fill-rule="nonzero" d="M188.073 16.791L181.491 13 176.836 21.864 183.409 25.655zM176.573 51.364L183.155 55.155 188.118 58.909 181.536 55.118z"/>
                                    <path fill="#00B8A8" fill-rule="nonzero" d="M181.273 53.636c.09.173.527 1.819.909 1.473.382-.345 2.163.436 2.163.436l5.091-6.472-.672-2.11h-4.546"/>
                                    <path fill="#68E1FD" fill-rule="nonzero" d="M205.845 25.764l.482-1.682 5.346-2.918v-9.091c0-.182-5.173 3.036-5.173 3.036l-.245-.509c-.292-1.394-.824-2.726-1.573-3.936l3.763-6.955-4.781-3.636-3.582 7.172c-1.302-.298-2.656-.273-3.946.073V.428l-6.845 3.8v7.2c-1.339 1.288-2.556 2.697-3.636 4.208L181.527 13l-4.69 8.818 3.69 2.937-.318 1.49c-.47 1.588-.844 3.203-1.118 4.837l-5.455 3.018v9.09l5.228-3.117c.227 1.654.803 3.24 1.69 4.654l-3.918 6.646 4.964 3.754 3.49-6.845h4.337v6.845l6.528-3.982v-6.727c1.5-1.468 2.824-3.106 3.945-4.882l3.927 2.728 4.737-9.091-4.019-2.918.391-1.364c.373-1.046.664-2.1.91-3.127z"/>
                                    <path fill="#00B8A8" fill-rule="nonzero" d="M218.255 15.845L212.2 12.191 210.691 14.427 213.036 19.327"/>
                                    <path fill="#68E1FD" fill-rule="nonzero" d="M210.336 46.009L205.864 44.145 205.864 41.436M195.936 58.909L189.364 55.118 191.036 50.145 196.955 51.882z"/>
                                    <ellipse cx="199.635" cy="31.429" fill="#68E1FD" fill-rule="nonzero" rx="5.1" ry="2.964" transform="rotate(-68.55 199.635 31.43)"/>
                                    <path fill="#68E1FD" fill-rule="nonzero" d="M188.073 16.791L181.491 13 176.836 21.864 183.409 25.655zM176.573 51.364L183.155 55.155 188.118 58.909 181.536 55.118z"/>
                                    <path fill="#00B8A8" fill-rule="nonzero" d="M205.845 25.764l.482-1.682 5.346-2.918v-9.091c0-.182-5.173 3.036-5.173 3.036l-.245-.509c-.292-1.394-.824-2.726-1.573-3.936l3.763-6.955-4.781-3.636-3.582 7.172c-1.302-.298-2.656-.273-3.946.073V.428l-6.845 3.8v7.2c-1.339 1.288-2.556 2.697-3.636 4.208L181.527 13l-4.69 8.818 3.69 2.937-.318 1.49c-.47 1.588-.844 3.203-1.118 4.837l-5.455 3.018v9.09l5.228-3.117c.227 1.654.803 3.24 1.69 4.654l-3.918 6.646 4.964 3.754 3.49-6.845h4.337v6.845l6.528-3.982v-6.727c1.5-1.468 2.824-3.106 3.945-4.882l3.927 2.728 4.737-9.091-4.019-2.918.391-1.364c.373-1.046.664-2.1.91-3.127z"/>
                                    <path fill="#053855" fill-rule="nonzero" d="M210.336 46.009L205.864 44.145 205.864 41.436M195.936 58.909L189.364 55.118 191.036 50.145 196.955 51.882z"/>
                                    <ellipse cx="199.635" cy="31.429" fill="#053855" fill-rule="nonzero" rx="5.1" ry="2.964" transform="rotate(-68.55 199.635 31.43)"/>
                                    <path fill="#00B8A8" fill-rule="nonzero" d="M188.073 16.791L181.491 13 176.836 21.864 183.409 25.655z"/>
                                    <path fill="#053855" fill-rule="nonzero" d="M176.573 51.364L183.155 55.155 188.118 58.909 181.536 55.118z"/>
                                    <path fill="#00B8A8" fill-rule="nonzero" d="M210.336 46.009L205.864 44.145 205.864 41.436M195.936 58.909L189.364 55.118 191.036 50.145 196.955 51.882z"/>
                                    <path fill="#40F9E9" fill-rule="nonzero" d="M212.427 29.555l.482-1.682 5.346-2.918v-9.091c0-.182-5.173 3.036-5.173 3.036l-.246-.51c-.29-1.393-.823-2.725-1.572-3.935l3.763-6.955-4.782-3.636-3.581 7.172c-1.302-.298-2.656-.273-3.946.073V4.22l-6.845 3.8v7.2c-1.339 1.288-2.556 2.697-3.637 4.208l-4.127-2.636-4.664 8.864 3.691 2.936-.318 1.49c-.478 1.573-.86 3.173-1.145 4.792l-5.455 3.018v9.09l5.227-3.117c.227 1.654.804 3.24 1.691 4.654l-3.918 6.646 4.964 3.754 3.49-6.845h4.337v6.836l6.527-3.982v-6.745c1.501-1.468 2.825-3.107 3.946-4.882l3.927 2.727 4.736-9.09-3.936-2.91.391-1.363c.282-1.028.582-2.073.827-3.11z"/>
                                    <ellipse cx="199.635" cy="31.429" fill="#00B8A8" fill-rule="nonzero" rx="5.1" ry="2.964" transform="rotate(-68.55 199.635 31.43)"/>
                                    <path fill="#00B8A8" fill-rule="nonzero" d="M176.573 51.364L183.155 55.155 188.118 58.909 181.536 55.118z"/>
                                    <path fill="#68E1FD" fill-rule="nonzero" d="M173.582 34.1L180.155 37.891 180.155 46.973 173.582 43.182z"/>
                                    <path fill="#00B8A8" fill-rule="nonzero" d="M173.582 34.1L180.155 37.891 180.155 46.973 173.582 43.182z"/>
                                    <path fill="#ADCEE1" fill-rule="nonzero" d="M281.773 75.109L281.782 76.1 281.282 76.709"/>
                                    <path fill="#68E1FD" fill-rule="nonzero" d="M120.682 160.91c.173.354 1.063 3.708 1.773 3 .709-.71 4.409.908 4.409.908l10.363-13.173-1.372-4.372h-9.328"/>
                                    <path fill="#68E1FD" fill-rule="nonzero" d="M170.718 104.1l.973-3.418 10.909-5.937V76.182c0-.364-10.536 6.19-10.536 6.19l-.491-1.036c-.592-2.838-1.675-5.552-3.2-8.018l7.672-14.163-9.745-7.41-7.273 14.6h-.063c-2.65-.61-5.41-.56-8.037.146V52.509L137 60.236v14.655c-2.737 2.62-5.226 5.487-7.436 8.564l-8.4-5.364-9.528 18.064 7.519 5.981-.646 3.028c-.972 3.201-1.75 6.459-2.327 9.754L105 121.073v18.482l10.636-6.364c.464 3.373 1.642 6.609 3.455 9.49l-7.982 13.537 10.11 7.646 7.1-13.928h8.836v13.928l13.29-8.1v-13.691c3.053-2.989 5.747-6.324 8.028-9.937l8 5.455 9.654-18.446-8.009-5.918.791-2.727c.71-2.173 1.318-4.3 1.81-6.4z"/>
                                    <path fill="#68E1FD" fill-rule="nonzero" d="M195.982 83.909L183.664 76.455 180.591 81.009 185.355 90.982M179.864 145.327L170.745 141.536 170.745 136.018M150.545 171.591L137.155 163.864 140.555 153.736 152.6 157.282zM166.291 51.745L179.682 59.473 172.336 74.109 164.3 74.255 162.436 59.473z"/>
                                    <ellipse cx="158.076" cy="115.645" fill="#68E1FD" fill-rule="nonzero" rx="10.391" ry="6.036" transform="rotate(-68.55 158.076 115.645)"/>
                                    <path fill="#68E1FD" fill-rule="nonzero" d="M136.973 60.236L150.364 67.964 164.3 60.227 150.9 52.509zM134.518 85.818L121.127 78.091 111.645 96.155 125.036 103.873zM111.109 156.218L124.509 163.945 134.609 171.591 121.218 163.864z"/>
                                    <path fill="#00B8A8" fill-rule="nonzero" d="M120.682 160.91c.173.354 1.063 3.708 1.773 3 .709-.71 4.409.908 4.409.908l10.363-13.173-1.372-4.372h-9.328"/>
                                    <path fill="#68E1FD" fill-rule="nonzero" d="M170.718 104.1l.973-3.418 10.909-5.937V76.182c0-.364-10.536 6.19-10.536 6.19l-.491-1.036c-.592-2.838-1.675-5.552-3.2-8.018l7.672-14.163-9.745-7.41-7.273 14.6h-.063c-2.65-.61-5.41-.56-8.037.146V52.509L137 60.236v14.655c-2.737 2.62-5.226 5.487-7.436 8.564l-8.4-5.364-9.528 18.064 7.519 5.981-.646 3.028c-.972 3.201-1.75 6.459-2.327 9.754L105 121.073v18.482l10.636-6.364c.464 3.373 1.642 6.609 3.455 9.49l-7.982 13.537 10.11 7.646 7.1-13.928h8.836v13.928l13.29-8.1v-13.691c3.053-2.989 5.747-6.324 8.028-9.937l8 5.455 9.654-18.446-8.009-5.918.791-2.727c.71-2.173 1.318-4.3 1.81-6.4z"/>
                                    <path fill="#00B8A8" fill-rule="nonzero" d="M195.982 83.909L183.664 76.455 180.591 81.009 185.355 90.982"/>
                                    <path fill="#68E1FD" fill-rule="nonzero" d="M179.864 145.327L170.745 141.536 170.745 136.018M150.545 171.591L137.155 163.864 140.555 153.736 152.6 157.282z"/>
                                    <path fill="#40F9E9" fill-rule="nonzero" d="M166.291 51.745L179.682 59.473 172.336 74.109 164.3 74.255 162.436 59.473z"/>
                                    <ellipse cx="158.076" cy="115.645" fill="#68E1FD" fill-rule="nonzero" rx="10.391" ry="6.036" transform="rotate(-68.55 158.076 115.645)"/>
                                    <path fill="#68E1FD" fill-rule="nonzero" d="M134.518 85.818L121.127 78.091 111.645 96.155 125.036 103.873zM111.109 156.218L124.509 163.945 134.609 171.591 121.218 163.864z"/>
                                    <path fill="#00B8A8" fill-rule="nonzero" d="M170.718 104.1l.973-3.418 10.909-5.937V76.182c0-.364-10.536 6.19-10.536 6.19l-.491-1.036c-.592-2.838-1.675-5.552-3.2-8.018l7.672-14.163-9.745-7.41-7.273 14.6h-.063c-2.65-.61-5.41-.56-8.037.146V52.509L137 60.236v14.655c-2.737 2.62-5.226 5.487-7.436 8.564l-8.4-5.364-9.528 18.064 7.519 5.981-.646 3.028c-.972 3.201-1.75 6.459-2.327 9.754L105 121.073v18.482l10.636-6.364c.464 3.373 1.642 6.609 3.455 9.49l-7.982 13.537 10.11 7.646 7.1-13.928h8.836v13.928l13.29-8.1v-13.691c3.053-2.989 5.747-6.324 8.028-9.937l8 5.455 9.654-18.446-8.009-5.918.791-2.727c.71-2.173 1.318-4.3 1.81-6.4z"/>
                                    <path fill="#053855" fill-rule="nonzero" d="M179.864 145.327L170.745 141.536 170.745 136.018M150.545 171.591L137.155 163.864 140.555 153.736 152.6 157.282z"/>
                                    <ellipse cx="158.076" cy="115.645" fill="#053855" fill-rule="nonzero" rx="10.391" ry="6.036" transform="rotate(-68.55 158.076 115.645)"/>
                                    <path fill="#00B8A8" fill-rule="nonzero" d="M134.518 85.818L121.127 78.091 111.645 96.155 125.036 103.873z"/>
                                    <path fill="#053855" fill-rule="nonzero" d="M111.109 156.218L124.509 163.945 134.609 171.591 121.218 163.864z"/>
                                    <path fill="#00B8A8" fill-rule="nonzero" d="M179.864 145.327L170.745 141.536 170.745 136.018M150.545 171.591L137.155 163.864 140.555 153.736 152.6 157.282z"/>
                                    <path fill="#40F9E9" fill-rule="nonzero" d="M184.118 111.818l.973-3.418L196 102.464V83.909c0-.364-10.536 6.191-10.536 6.191l-.491-1.036c-.592-2.839-1.675-5.553-3.2-8.019l7.672-14.163-9.745-7.41-7.273 14.6h-.063c-2.65-.61-5.41-.56-8.037.146v-13.99L150.4 67.954v14.654c-2.737 2.62-5.226 5.487-7.436 8.564l-8.419-5.355-9.49 18.055 7.518 5.982-.646 3.027c-.972 3.201-1.75 6.459-2.327 9.754l-11.182 6.155v18.482l10.637-6.364c.46 3.366 1.632 6.595 3.436 9.473l-7.946 13.563 10.11 7.646 7.1-13.927h8.836v13.927l13.29-8.1v-13.7c3.054-2.989 5.748-6.324 8.028-9.936l8 5.454 9.655-18.445-8.01-5.919.791-2.727c.664-2.173 1.291-4.3 1.773-6.4z"/>
                                    <ellipse cx="158.076" cy="115.645" fill="#00B8A8" fill-rule="nonzero" rx="10.391" ry="6.036" transform="rotate(-68.55 158.076 115.645)"/>
                                    <path fill="#00B8A8" fill-rule="nonzero" d="M111.109 156.218L124.509 163.945 134.609 171.591 121.218 163.864z"/>
                                    <path fill="#68E1FD" fill-rule="nonzero" d="M136.973 60.236L150.364 67.964 164.3 60.227 150.9 52.509z"/>
                                    <path fill="#00B8A8" fill-rule="nonzero" d="M136.973 60.182L150.336 67.955 164.3 60.282 150.936 52.509z"/>
                                    <path fill="#68E1FD" fill-rule="nonzero" d="M105.009 121.073L118.409 128.8 118.409 147.282 105.009 139.555z"/>
                                    <path fill="#00B8A8" fill-rule="nonzero" d="M105.009 121.073L118.409 128.8 118.409 147.282 105.009 139.555z"/>
                                    <path fill="url(#832lt73b4j)" fill-rule="nonzero" d="M109.427 209.673c12.482-6.064 25.046-12.728 40.118-23.791-21.7-11.31-47.654-29.146-61.054-37.527l-41.436 23.281c8.59 4.51 47.236 28.51 62.372 38.037z" style="mix-blend-mode:multiply"/>
                                    <path fill="#00AFA0" fill-rule="nonzero" d="M88.491 57.945L71.3 48.8 30.073 72.609 30.073 161.818 47.055 171.636"/>
                                    <path fill="#0BC4B4" fill-rule="nonzero" d="M47.055 171.636c1.29-.109 0-89.772 0-89.772L88.49 57.945v90.41l-41.436 23.281z"/>
                                    <path stroke="#F2F2F2" stroke-width=".25" d="M88.491 74.809L47.255 98.018 30.073 89.255M88.491 98.018L47.255 121.218 30.073 112.464M88.491 118.9L47.255 142.109 30.073 133.345M88.491 139.973L47.255 163.182 30.073 154.427"/>
                                    <path fill="#37F0E0" fill-rule="nonzero" d="M47.055 81.864L30.073 72.609 71.3 48.8 88.491 57.945z"/>
                                    <ellipse cx="54.874" cy="84.806" fill="#FFF" fill-rule="nonzero" rx="3.018" ry="2.5" transform="rotate(-67.72 54.874 84.806)"/>
                                    <path fill="#F2F2F2" fill-rule="nonzero" d="M83.073 69.455L61.036 81.573c-.381.209 0 .8.346.59L83.409 70c.382-.21 0-.8-.345-.59l.009.045z"/>
                                    <ellipse cx="54.869" cy="105.099" fill="#FFF" fill-rule="nonzero" rx="3.018" ry="2.5" transform="rotate(-67.72 54.869 105.099)"/>
                                    <path fill="#F2F2F2" fill-rule="nonzero" d="M83.073 89.745l-22.037 12.073c-.381.21 0 .8.346.591l22.027-12.118c.382-.21 0-.8-.345-.591l.009.045z"/>
                                    <ellipse cx="54.868" cy="127.266" fill="#FFF" fill-rule="nonzero" rx="3.018" ry="2.5" transform="rotate(-67.72 54.868 127.266)"/>
                                    <path fill="#F2F2F2" fill-rule="nonzero" d="M83.073 111.918l-22.037 12.11c-.381.208 0 .8.346.59L83.409 112.5c.382-.21 0-.8-.345-.59l.009.008z"/>
                                    <ellipse cx="54.866" cy="147.387" fill="#FFF" fill-rule="nonzero" rx="3.018" ry="2.5" transform="rotate(-67.72 54.866 147.387)"/>
                                    <path fill="#F2F2F2" fill-rule="nonzero" d="M83.073 132.036l-22.037 12.119c-.381.209 0 .8.346.59l22.027-12.118c.382-.209 0-.8-.345-.59h.009z"/>
                                    <g fill-rule="nonzero">
                                        <path fill="#88D3D8" d="M74.361 51.487l33.705 20.458c.627.374 1.01 1.045 1.01 1.768 0 .724-.383 1.395-1.01 1.77l-50.89 28.721c-1.45.81-3.222.81-4.672 0L18.847 84.89c-2.44-1.972-2.281-5.682 0-5.854L69.53 51.44c1.498-.855 3.349-.837 4.83.047z" transform="translate(185.924 51.189)"/>
                                        <path fill="#FFF" d="M74.177 49.495l33.884 20.454c.63.374 1.015 1.045 1.015 1.769s-.385 1.394-1.015 1.768L56.9 102.204c-1.458.81-3.24.81-4.698 0L18.367 82.877c-.8-.461-1.29-1.304-1.29-2.215 0-.911.49-1.754 1.29-2.214l50.954-29.016c1.51-.85 3.37-.826 4.856.063z" transform="translate(185.924 51.189)"/>
                                        <path fill="#00403A" d="M72.984 46.726S58.773 2.01 58.868 2.01c.096 0-.445-1.983-2.944-.85L2.231 32.639S-.38 33.694.146 36.102C.671 38.51 14.04 79.856 14.04 79.856c.57.802 1.6 1.146 2.546.85 1.591-.503 55.158-31.478 55.158-31.478 1.018-.377 1.563-1.475 1.24-2.502z" transform="translate(185.924 51.189)"/>
                                        <path fill="#40F9E9" d="M57.827 5.811L3.076 37.848 14.613 75.811 70.076 44.704zM75.98 54.175l12.373 7.51c.449.266.723.744.723 1.26 0 .515-.274.993-.723 1.259L44.158 89.237c-1.348.766-3.009.766-4.357 0-2.863-1.565-7.76-4.537-10.782-6.337-.581-.313-.943-.913-.943-1.564 0-.652.362-1.252.943-1.565l44.528-25.674c.767-.407 1.696-.377 2.434.078zM76.05 75.064l-15.243 8.622c-.455.286-.73.785-.73 1.322 0 .536.275 1.035.73 1.322l9.01 5.21c.627.361 1.399.361 2.025 0l15.589-8.95c.399-.225.645-.646.645-1.103 0-.457-.246-.878-.645-1.103l-9.42-5.32c-.61-.337-1.351-.337-1.961 0z" transform="translate(185.924 51.189)"/>
                                    </g>
                                </g>
                            </g>
                            <g fill-rule="nonzero" mask="url(#wi4zs3zplh)">
                                <g transform="translate(134.928 6.5)">
                                    <path fill="#40F9E9" d="M161.072 29c0 .828-.672 1.5-1.5 1.5s-1.5-.672-1.5-1.5.672-1.5 1.5-1.5c.4-.004.783.152 1.066.434.282.283.438.667.434 1.066z" opacity=".6"/>
                                    <path fill="#FFF" d="M196.072 61.983c.007.609-.355 1.16-.915 1.398-.56.237-1.207.113-1.64-.315-.432-.427-.564-1.074-.332-1.636.23-.563.779-.93 1.387-.93.822 0 1.49.662 1.5 1.483z" opacity=".3"/>
                                    <path fill="#FFF" d="M10.072 133c0 .607-.365 1.154-.926 1.386-.56.232-1.206.104-1.635-.325-.429-.43-.557-1.075-.325-1.635.232-.56.78-.926 1.386-.926.828 0 1.5.672 1.5 1.5z" opacity=".5"/>
                                    <path fill="#FFF" d="M60.072 59c0 .828-.672 1.5-1.5 1.5s-1.5-.672-1.5-1.5.672-1.5 1.5-1.5c.398 0 .78.158 1.06.44.282.28.44.662.44 1.06z" opacity=".4"/>
                                    <path fill="#40F9E9" d="M59.072 7.984c.007.608-.355 1.16-.915 1.397-.56.237-1.207.113-1.64-.315-.432-.427-.564-1.074-.332-1.636.23-.563.779-.93 1.387-.93.396-.004.778.15 1.06.429.281.278.44.658.44 1.055zM28.072 32c0 .828-.672 1.5-1.5 1.5s-1.5-.672-1.5-1.5.672-1.5 1.5-1.5 1.5.672 1.5 1.5zM41.072 53c0 .826-.668 1.497-1.495 1.5-.826.003-1.499-.663-1.505-1.489-.006-.826.657-1.502 1.484-1.51.4-.005.786.15 1.07.433.286.281.446.665.446 1.066z" opacity=".6"/>
                                    <circle cx="163.072" cy="18.5" r="2" fill="#40F9E9" opacity=".6"/>
                                    <circle cx="146.072" cy="52.5" r="2" fill="#FFF" opacity=".223"/>
                                    <ellipse cx="21.231" cy="112.2" fill="#FFF" opacity=".1" rx="2.068" ry="2.071" transform="rotate(-80.82 21.231 112.2)"/>
                                    <path fill="#FFF" d="M37.072 153.5c0 1.105-.895 2-2 2s-2-.895-2-2 .895-2 2-2 2 .895 2 2z" opacity=".2"/>
                                    <path fill="#FFF" d="M4.072 74.5c0 1.105-.895 2-2 2s-2-.895-2-2 .895-2 2-2 2 .895 2 2z" opacity=".1"/>
                                    <circle cx="101.072" cy="2.5" r="2" fill="#40F9E9" opacity=".6"/>
                                    <path fill="#40F9E9" d="M45.072 25.5c0 1.105-.895 2-2 2s-2-.895-2-2 .895-2 2-2 2 .895 2 2z" opacity=".6"/>
                                    <circle cx="175.072" cy="40.5" r="2" fill="#40F9E9" opacity=".6"/>
                                </g>
                            </g>
                            <g style="mix-blend-mode:luminosity" mask="url(#wi4zs3zplh)">
                                <g>
                                    <path fill="#DCDCDC" fill-rule="nonzero" d="M1.509 69.054C.727 69.6.26 70.494.26 71.449c0 .954.466 1.848 1.248 2.395 1.604 1.317 2.826 2.083 4.478.766 1.653-1.317 3.689-5.532 2.084-6.85-1.605-1.317-4.91-.024-6.562 1.294z" opacity=".6" transform="translate(116 20)"/>
                                    <g opacity=".83">
                                        <path fill="#DCDCDC" fill-rule="nonzero" d="M1.509 2.634C.727 3.181.26 4.075.26 5.03c0 .955.466 1.849 1.248 2.395 1.604 1.318 3.065 1.964 4.79.647 1.724-1.317 3.28-5.125 1.652-6.562C6.323.072 3.161 1.317 1.51 2.634z" opacity=".67" transform="translate(116 20) translate(0 59.594)"/>
                                    </g>
                                    <g opacity=".67">
                                        <path fill="#DCDCDC" fill-rule="nonzero" d="M1.509 1.758C.727 2.304.26 3.198.26 4.153.26 5.107.727 6 1.509 6.548c1.255 1.46 3.435 1.682 4.957.503C8.095 5.757 9.46 2.26 7.856.92 6.25-.422 3.16.488 1.509 1.758z" opacity=".73" transform="translate(116 20) translate(0 53.597)"/>
                                    </g>
                                    <g opacity=".5">
                                        <path fill="#DCDCDC" fill-rule="nonzero" d="M1.509 2.165C.736 2.718.279 3.61.279 4.56s.457 1.842 1.23 2.395c1.384 1.413 3.607 1.567 5.173.36 1.629-1.294 2.682-4.48 1.054-5.797C5.729.412 3.246.67 1.509 2.165z" opacity=".8" transform="translate(116 20) translate(0 46.412)"/>
                                    </g>
                                    <g opacity=".33">
                                        <path fill="#DCDCDC" fill-rule="nonzero" d="M1.509 1.317C.736 1.87.279 2.762.279 3.712s.457 1.842 1.23 2.395C3.012 7.5 5.3 7.6 6.92 6.347 8.55 5.029 9.316 2.203 7.64.887c-1.928-1.173-4.386-1-6.131.43z" opacity=".87" transform="translate(116 20) translate(0 40.434)"/>
                                    </g>
                                    <g opacity=".17">
                                        <path fill="#DCDCDC" fill-rule="nonzero" d="M1.509 1.676C.736 2.23.279 3.121.279 4.071s.457 1.842 1.23 2.395c1.652 1.321 4 1.321 5.652 0 .816-.566 1.332-1.473 1.402-2.464.07-.992-.314-1.961-1.043-2.637C5.664.142 3.228.268 1.51 1.676z" opacity=".93" transform="translate(116 20) translate(0 33.249)"/>
                                    </g>
                                    <path fill="#2AFBFE" fill-rule="nonzero" d="M4.455 1.324C6.85-.09 8.909 1.06 8.909 3.887c-.16 3.124-1.808 5.982-4.43 7.687C2.084 13.011 0 11.862 0 9.036.174 5.903 1.828 3.04 4.455 1.324zM4.455 66.467c2.395-1.437 4.454-.287 4.454 2.539-.165 3.13-1.81 5.993-4.43 7.712C2.012 78.13 0 76.909 0 74.155c.17-3.127 1.826-5.985 4.455-7.688z" transform="translate(116 20)"/>
                                    <path fill="#C5F9FF" fill-rule="nonzero" d="M4.79 68.742V9.3C6.209 8.34 7.096 6.771 7.185 5.06c0-1.58-1.126-2.203-2.395-1.413-1.434.956-2.324 2.54-2.395 4.263 0 1.413.91 2.06 2.108 1.58v59.492c-1.254.971-2.023 2.44-2.108 4.023 0 1.557 1.102 2.204 2.395 1.413 1.431-.958 2.32-2.541 2.395-4.263 0-1.556-1.03-2.179-2.395-1.413z" transform="translate(116 20)"/>
                                </g>
                            </g>
                            <g style="mix-blend-mode:luminosity" mask="url(#wi4zs3zplh)">
                                <g>
                                    <path fill="#DCDCDC" fill-rule="nonzero" d="M1.509 69.054C.727 69.6.26 70.494.26 71.449c0 .954.466 1.848 1.248 2.395 1.604 1.317 2.826 2.083 4.478.766 1.653-1.317 3.689-5.532 2.084-6.85-1.605-1.317-4.91-.024-6.562 1.294z" opacity=".6" transform="translate(331 100)"/>
                                    <g opacity=".83">
                                        <path fill="#DCDCDC" fill-rule="nonzero" d="M1.509 2.634C.727 3.181.26 4.075.26 5.03c0 .955.466 1.849 1.248 2.395 1.604 1.318 3.065 1.964 4.79.647 1.724-1.317 3.28-5.125 1.652-6.562C6.323.072 3.161 1.317 1.51 2.634z" opacity=".67" transform="translate(331 100) translate(0 59.594)"/>
                                    </g>
                                    <g opacity=".67">
                                        <path fill="#DCDCDC" fill-rule="nonzero" d="M1.509 1.758C.727 2.304.26 3.198.26 4.153.26 5.107.727 6 1.509 6.548c1.255 1.46 3.435 1.682 4.957.503C8.095 5.757 9.46 2.26 7.856.92 6.25-.422 3.16.488 1.509 1.758z" opacity=".73" transform="translate(331 100) translate(0 53.597)"/>
                                    </g>
                                    <g opacity=".5">
                                        <path fill="#DCDCDC" fill-rule="nonzero" d="M1.509 2.165C.736 2.718.279 3.61.279 4.56s.457 1.842 1.23 2.395c1.384 1.413 3.607 1.567 5.173.36 1.629-1.294 2.682-4.48 1.054-5.797C5.729.412 3.246.67 1.509 2.165z" opacity=".8" transform="translate(331 100) translate(0 46.412)"/>
                                    </g>
                                    <g opacity=".33">
                                        <path fill="#DCDCDC" fill-rule="nonzero" d="M1.509 1.317C.736 1.87.279 2.762.279 3.712s.457 1.842 1.23 2.395C3.012 7.5 5.3 7.6 6.92 6.347 8.55 5.029 9.316 2.203 7.64.887c-1.928-1.173-4.386-1-6.131.43z" opacity=".87" transform="translate(331 100) translate(0 40.434)"/>
                                    </g>
                                    <g opacity=".17">
                                        <path fill="#DCDCDC" fill-rule="nonzero" d="M1.509 1.676C.736 2.23.279 3.121.279 4.071s.457 1.842 1.23 2.395c1.652 1.321 4 1.321 5.652 0 .816-.566 1.332-1.473 1.402-2.464.07-.992-.314-1.961-1.043-2.637C5.664.142 3.228.268 1.51 1.676z" opacity=".93" transform="translate(331 100) translate(0 33.249)"/>
                                    </g>
                                    <path fill="#2AFBFE" fill-rule="nonzero" d="M4.455 1.324C6.85-.09 8.909 1.06 8.909 3.887c-.16 3.124-1.808 5.982-4.43 7.687C2.084 13.011 0 11.862 0 9.036.174 5.903 1.828 3.04 4.455 1.324zM4.455 66.467c2.395-1.437 4.454-.287 4.454 2.539-.165 3.13-1.81 5.993-4.43 7.712C2.012 78.13 0 76.909 0 74.155c.17-3.127 1.826-5.985 4.455-7.688z" transform="translate(331 100)"/>
                                    <path fill="#C5F9FF" fill-rule="nonzero" d="M4.79 68.742V9.3C6.209 8.34 7.096 6.771 7.185 5.06c0-1.58-1.126-2.203-2.395-1.413-1.434.956-2.324 2.54-2.395 4.263 0 1.413.91 2.06 2.108 1.58v59.492c-1.254.971-2.023 2.44-2.108 4.023 0 1.557 1.102 2.204 2.395 1.413 1.431-.958 2.32-2.541 2.395-4.263 0-1.556-1.03-2.179-2.395-1.413z" transform="translate(331 100)"/>
                                </g>
                            </g>
                        </g>
                    </g>
                </g>
            </g>
        </g>
    </g>
</svg>
