<svg xmlns="http://www.w3.org/2000/svg" width="31" height="31" viewBox="0 0 31 31">
    <g fill="none" fill-rule="evenodd">
        <g fill="#FFF">
            <g>
                <g transform="translate(-25 -287) translate(0 280) translate(25 7)">
                    <ellipse cx="15.5" cy="15.5" opacity=".105" rx="15.5" ry="15.434"/>
                    <circle cx="15.5" cy="15.566" r="12.202" opacity=".105"/>
                    <path fill-rule="nonzero" d="M15.5 6.662c-4.918 0-8.904 3.986-8.904 8.904 0 4.918 3.986 8.904 8.904 8.904 4.918 0 8.904-3.986 8.904-8.904-.005-4.916-3.988-8.899-8.904-8.904zm3.66 9.34c-.06.122-.16.221-.283.283v.003l-5.052 2.524c-.312.156-.69.03-.847-.282-.044-.089-.067-.187-.066-.286v-5.05c0-.348.282-.63.63-.63.099 0 .196.022.283.066l5.052 2.525c.313.155.44.534.284.846z"/>
                </g>
            </g>
        </g>
    </g>
</svg>
