<svg xmlns="http://www.w3.org/2000/svg" xmlns:xlink="http://www.w3.org/1999/xlink" width="354" height="354" viewBox="0 0 354 354">
    <defs>
        <linearGradient id="vuduum6uqa" x1="88.279%" x2="1.499%" y1="73.511%" y2="37.316%">
            <stop offset="0%" stop-color="#1B70F0"/>
            <stop offset="100%" stop-color="#7AACF9"/>
        </linearGradient>
        <linearGradient id="fnlxpdzffb" x1="112.995%" x2="-4.327%" y1="62.587%" y2="53.828%">
            <stop offset="0%" stop-color="#1B70F0"/>
            <stop offset="100%" stop-color="#7AACF9"/>
        </linearGradient>
        <linearGradient id="arteu1ho5c" x1="58.563%" x2="4.018%" y1="63.513%" y2="30.436%">
            <stop offset="0%" stop-color="#428EFF"/>
            <stop offset="100%" stop-color="#7AACF9"/>
        </linearGradient>
        <path id="vfkzgpbrqd" d="M0.287 0.488L11.268 0.488 11.268 11.47 0.287 11.47z"/>
        <path id="1et75pmncf" d="M0.649 0.295L14.386 0.295 14.386 12.782 0.649 12.782z"/>
        <path id="mlr41xr7oh" d="M0 0.104L12.644 0.104 12.644 12.592 0 12.592z"/>
    </defs>
    <g fill="none" fill-rule="evenodd">
        <g>
            <g>
                <g>
                    <g>
                        <path fill="#E1E8EE" d="M294.528 166.38c0-67.646-53.57-122.484-119.652-122.484S55.224 98.734 55.224 166.38c0 67.646 53.57 122.484 119.652 122.484s119.652-54.838 119.652-122.484" transform="translate(-786 -2277) translate(70 2229) translate(716 48) translate(0 19.824)"/>
                        <path fill="#000" d="M273.288 194.447v41.29c-4.506 6.402-9.572 12.31-15.177 17.727v-59.017h-.021v-.14c-.07-.306-7.449-6.45-13.122-11.115v-2.58l6.863-1.781c2.827-.726 5.791-.494 8.43.656 1.192.515 2.427 1.009 3.665 1.407v5.393c5.673 4.666 9.27 7.714 9.338 8.02v.14h.024z" opacity=".074" transform="translate(-786 -2277) translate(70 2229) translate(716 48) translate(0 19.824)"/>
                        <path fill="url(#vuduum6uqa)" d="M5.664 8.496L40.663 92.169 66.241 74.34 81.065 96.288 83.739 59.262 114.696 40.041z" transform="translate(-786 -2277) translate(70 2229) translate(716 48) translate(0 19.824)"/>
                        <path fill="#1B70F0" d="M71.661 71.405L40.266 93.525 65.964 75.425 80.857 97.704 83.544 60.123 33.984 29.736z" transform="translate(-786 -2277) translate(70 2229) translate(716 48) translate(0 19.824)"/>
                        <path fill="#1B70F0" d="M82.886 69.384L33.984 29.736 83.544 60.161z" transform="translate(-786 -2277) translate(70 2229) translate(716 48) translate(0 19.824)"/>
                        <path fill="#AEC2D3" d="M81.557 109.032c-.226-1.681-.509-3.359-.845-4.987l1.95-.677c.353 1.705.649 3.461.882 5.219l-1.987.445zM83.009 127.84l-2.448-.44c.57-3.259.866-6.579.883-9.872l2.486.014c-.016 3.433-.324 6.899-.921 10.299zm-17.027 1.486c-2.83-.64-5.728-.966-8.622-.966l-1.007.011-.062-2.52c3.424-.085 6.88.252 10.236 1.016l-.545 2.459zm-27.403 4.922l-1.74-1.802c2.19-2.174 5.185-3.8 9.156-4.979l.836 2.38c-3.658 1.082-6.385 2.55-8.252 4.4zm44.725 3.792c-2.286-1.69-4.743-3.464-7.404-4.94l-.834-.446 1.141-2.24c.296.154.593.313.886.475 2.791 1.549 5.427 3.45 7.677 5.112l-1.466 2.04zm106.848 3.32l-.766-2.396c3.161-1.04 6.31-2.127 9.438-3.254l.832 2.377c-3.15 1.133-6.318 2.228-9.504 3.273zm-19.33 5.583l-.582-2.449c3.11-.766 6.347-1.633 9.619-2.583l.687 2.426c-3.307.958-6.578 1.833-9.723 2.606zm-94.726.28l-2.158-1.255c1.613-2.842 2.992-5.867 4.105-8.99l2.338.854c-1.16 3.262-2.6 6.421-4.285 9.391zm24.824 1.003c-2.925-1.007-5.664-2.239-8.146-3.66-.39-.22-.779-.451-1.164-.688l1.285-2.158c.364.222.727.44 1.1.65 2.35 1.347 4.95 2.513 7.727 3.471l-.802 2.385zm50.136 2.549l-.335-2.498c3.2-.441 6.496-.993 9.8-1.639l.471 2.475c-3.349.655-6.692 1.215-9.936 1.662zm-30.193 1.147l-1.588-.125c-3.057-.258-5.827-.606-8.47-1.07l.423-2.483c2.57.45 5.27.79 8.254 1.042l1.554.118-.173 2.518zm10.09.33l-.012-2.521c3.242-.016 6.575-.15 9.91-.398l.181 2.513c-3.389.253-6.78.39-10.08.406zm-96.242.576c-1.405-2.881-2.145-6.048-2.143-9.158 0-.257.004-.513.015-.766l.031-.548 2.48.184-.025.461c-.01.226-.013.447-.013.669-.002 2.725.65 5.507 1.885 8.042l-2.23 1.116zm27.247 9.371l-1.098-2.26c2.588-1.29 5.09-3.288 7.44-5.94l1.852 1.684c-2.565 2.893-5.323 5.088-8.194 6.516zm-10.333 2.057c-3.612-.245-7.067-1.411-9.99-3.377l1.373-2.101c2.565 1.722 5.601 2.747 8.782 2.96l-.165 2.518z" transform="translate(-786 -2277) translate(70 2229) translate(716 48) translate(0 19.824)"/>
                        <path fill="#00C8B7" d="M210.471 134.52l-.903-2.4c1.584-.609 3.163-1.226 4.739-1.848l.925 2.391c-1.582.624-3.17 1.245-4.76 1.857" transform="translate(-786 -2277) translate(70 2229) translate(716 48) translate(0 19.824)"/>
                        <path fill="#AEC2D3" d="M287.166 196.824c-1.298 0-2.41-.993-2.538-2.324-.136-1.414.89-2.671 2.294-2.806 15.42-1.507 29.607-8.925 39.946-20.892.927-1.073 2.54-1.18 3.599-.25 1.064.934 1.175 2.558.25 3.629-11.202 12.962-26.578 21-43.303 22.631-.084.008-.167.012-.248.012" transform="translate(-786 -2277) translate(70 2229) translate(716 48) translate(0 19.824)"/>
                        <path fill="#1B70F0" d="M257.712 195.118L171.335 247.8 84.96 195.118c0-.044 0-.103.011-.147.073-.334 4.841-4.45 12.11-10.559.07-.057.128-.116.197-.174 23.852-20.028 74.057-61.046 74.057-61.046s50.207 41.018 74.059 61.046c7.382 6.195 12.234 10.385 12.303 10.733.015.044.015.103.015.147" transform="translate(-786 -2277) translate(70 2229) translate(716 48) translate(0 19.824)"/>
                        <path fill="#FFF" d="M206.88 80.712h-93.275c-8 0-14.485 6.644-14.485 14.84v144.486c0 8.198 6.485 14.842 14.485 14.842h116.878c8 0 14.485-6.644 14.485-14.842V119.733L206.88 80.712z" transform="translate(-786 -2277) translate(70 2229) translate(716 48) translate(0 19.824)"/>
                        <path fill="#BBD5FA" d="M208.152 105.28c0 8.33 6.511 15.08 14.542 15.08h23.69l-38.232-39.648v24.569z" transform="translate(-786 -2277) translate(70 2229) translate(716 48) translate(0 19.824)"/>
                        <path fill="#428EFF" d="M158.928 104.784h-33.236c-2.947 0-5.332 2.385-5.332 5.33v33.236c0 2.943 2.385 5.33 5.332 5.33h33.236c2.943 0 5.328-2.387 5.328-5.33v-33.236c0-2.945-2.385-5.33-5.328-5.33" transform="translate(-786 -2277) translate(70 2229) translate(716 48) translate(0 19.824)"/>
                        <path fill="#CDE1FF" d="M203.953 161.424h-77.98c-2.317 0-4.197 1.902-4.197 4.248s1.88 4.248 4.197 4.248h77.98c2.319 0 4.199-1.902 4.199-4.248s-1.88-4.248-4.2-4.248M203.953 182.664h-77.98c-2.317 0-4.197 1.902-4.197 4.248s1.88 4.248 4.197 4.248h77.98c2.319 0 4.199-1.902 4.199-4.248s-1.88-4.248-4.2-4.248M167.136 202.488H124.56c-2.32 0-4.2 1.902-4.2 4.248s1.88 4.248 4.2 4.248h42.576c2.317 0 4.2-1.902 4.2-4.248s-1.883-4.248-4.2-4.248" transform="translate(-786 -2277) translate(70 2229) translate(716 48) translate(0 19.824)"/>
                        <path fill="url(#fnlxpdzffb)" d="M257.712 195.408v85.435c0 5.973-4.736 10.853-10.527 10.853H95.458c-5.791 0-10.498-4.88-10.498-10.853v-85.435l86.375 52.508 86.377-52.508z" transform="translate(-786 -2277) translate(70 2229) translate(716 48) translate(0 19.824)"/>
                        <path fill="#1B70F0" d="M254.88 289.703l-55.648-57.471-27.887 16.983-27.902-16.991-55.651 57.477c1.914 2.089 4.604 3.411 7.601 3.411h151.873c2.996 0 5.69-1.32 7.614-3.41" transform="translate(-786 -2277) translate(70 2229) translate(716 48) translate(0 19.824)"/>
                        <path fill="url(#arteu1ho5c)" d="M275.07 78.147c-25.106 2.532-45.162 23.785-46.958 49.627-.893 12.86 2.657 24.805 9.19 34.47 2.462 3.641 2.865 8.346 1.211 12.44l-4.14 10.235 16.923-4.506c2.756-.733 5.671-.503 8.285.66 7.845 3.495 16.68 5.087 25.967 4.166 24.64-2.45 44.578-22.888 46.96-48.197 3.193-33.953-24.367-62.227-57.438-58.895" transform="translate(-786 -2277) translate(70 2229) translate(716 48) translate(0 19.824)"/>
                        <path fill="#FFF" d="M282.057 158.592l2.868-2.958s-2.276-5.535 7.27-14.87c5.683-5.554 6.957-10.935 6.494-15.334-.734-7-6.28-12.719-13.068-13.476-4.266-.478-9.483.835-14.871 6.696-9.05 9.847-14.42 7.498-14.42 7.498l-2.866 2.956 28.593 29.488zM260.505 141.6c-2.046 3.137-1.814 7.564.707 10.4 2.52 2.836 6.455 3.095 9.244.796l-9.951-11.196zM300.456 115.725l-1.8 1.803c-1.4-2.232-3.303-4.137-5.544-5.525l1.815-1.818c1.533-1.537 4.01-1.537 5.544 0 1.519 1.521 1.519 4.003-.015 5.54" transform="translate(-786 -2277) translate(70 2229) translate(716 48) translate(0 19.824)"/>
                        <path fill="#1B70F0" d="M278.702 77.899c18.752 5.74 32.425 23.493 32.425 44.53 0 25.682-20.363 46.5-45.481 46.5-13.236 0-25.111-5.814-33.422-15.036 1.31 2.929 2.847 5.727 4.626 8.348 2.473 3.64 2.878 8.346 1.216 12.44l-4.16 10.24 17.003-4.507c2.772-.734 5.699-.506 8.325.658 7.882 3.496 16.76 5.09 26.09 4.166 24.758-2.451 44.791-22.892 47.182-48.205 3.082-32.618-22.347-59.977-53.804-59.134" transform="translate(-786 -2277) translate(70 2229) translate(716 48) translate(0 19.824)"/>
                        <path fill="#E1E8EE" d="M7.973 34.198l11.629 26.967c.59 1.374-.036 2.973-1.398 3.568l-.414.18c-1.367.597-2.955-.047-3.534-1.436L3.042 36.33c-.59-1.424.11-3.058 1.542-3.594 1.335-.497 2.822.143 3.39 1.462M52.391 234.247c-1.9 0-3.438-1.54-3.438-3.44 0-1.898 1.539-3.438 3.438-3.438 1.901 0 3.44 1.54 3.44 3.438 0 1.9-1.539 3.44-3.44 3.44m0-11.935c-4.692 0-8.495 3.803-8.495 8.495 0 4.694 3.803 8.497 8.495 8.497 4.692 0 8.497-3.803 8.497-8.497 0-4.692-3.805-8.495-8.497-8.495M277.535 269.648c-1.9 0-3.44-1.54-3.44-3.44s1.54-3.438 3.44-3.438c1.901 0 3.44 1.539 3.44 3.438 0 1.9-1.539 3.44-3.44 3.44m0-11.936c-4.692 0-8.495 3.804-8.495 8.496 0 4.694 3.803 8.496 8.495 8.496 4.692 0 8.497-3.802 8.497-8.496 0-4.692-3.805-8.496-8.497-8.496M346.211 132.144c-1.423 0-2.579-1.154-2.579-2.579 0-1.425 1.156-2.58 2.579-2.58 1.425 0 2.58 1.155 2.58 2.58s-1.155 2.579-2.58 2.579m0-8.952c-3.519 0-6.371 2.854-6.371 6.373s2.852 6.371 6.371 6.371c3.52 0 6.373-2.852 6.373-6.371 0-3.519-2.852-6.373-6.373-6.373M232.932 28.774c-1.424 0-2.58-1.154-2.58-2.578 0-1.425 1.156-2.58 2.58-2.58 1.424 0 2.58 1.155 2.58 2.58 0 1.424-1.156 2.578-2.58 2.578m0-8.95c-3.52 0-6.372 2.853-6.372 6.372 0 3.52 2.853 6.372 6.372 6.372 3.52 0 6.372-2.853 6.372-6.372 0-3.52-2.853-6.372-6.372-6.372M16.283 181.248c-4.3 0-7.787 3.17-7.787 7.079 0 3.91 3.486 7.081 7.787 7.081 4.303 0 7.789-3.171 7.789-7.081 0-3.91-3.486-7.079-7.789-7.079M302.316 205.32c-2.736 0-4.956 2.22-4.956 4.956 0 2.738 2.22 4.956 4.956 4.956s4.956-2.218 4.956-4.956c0-2.736-2.22-4.956-4.956-4.956M129.565 21.24c-4.304 0-7.789 3.487-7.789 7.788s3.485 7.788 7.789 7.788c4.302 0 7.787-3.487 7.787-7.788s-3.485-7.788-7.787-7.788" transform="translate(-786 -2277) translate(70 2229) translate(716 48) translate(0 19.824)"/>
                        <g transform="translate(-786 -2277) translate(70 2229) translate(716 48) translate(0 19.824) translate(164.256 303.024)">
                            <mask id="qcnlpi8kbe" fill="#fff">
                                <use xlink:href="#vfkzgpbrqd"/>
                            </mask>
                            <path fill="#E1E8EE" d="M5.778.488c-3.032 0-5.49 2.459-5.49 5.49 0 3.032 2.458 5.493 5.49 5.493 3.031 0 5.49-2.46 5.49-5.492S8.809.489 5.778.489" mask="url(#qcnlpi8kbe)"/>
                        </g>
                        <path fill="#E1E8EE" d="M276.828 50.976c-3.52 0-6.372 2.854-6.372 6.373 0 3.517 2.852 6.371 6.372 6.371s6.372-2.854 6.372-6.371c0-3.52-2.852-6.373-6.372-6.373M48.852 103.368c-1.955 0-3.54 1.585-3.54 3.54s1.585 3.54 3.54 3.54 3.54-1.585 3.54-3.54-1.585-3.54-3.54-3.54M348.335 90.624c-3.128 0-5.663 2.853-5.663 6.372 0 3.519 2.535 6.372 5.663 6.372 3.13 0 5.665-2.853 5.665-6.372 0-3.519-2.535-6.372-5.665-6.372M12.037 124.608c-1.955 0-3.541 1.901-3.541 4.248 0 2.347 1.586 4.248 3.54 4.248s3.54-1.901 3.54-4.248c0-2.347-1.586-4.248-3.54-4.248" transform="translate(-786 -2277) translate(70 2229) translate(716 48) translate(0 19.824)"/>
                        <g transform="translate(-786 -2277) translate(70 2229) translate(716 48) translate(0 19.824) translate(169.92)">
                            <mask id="504p0lhjtg" fill="#fff">
                                <use xlink:href="#1et75pmncf"/>
                            </mask>
                            <path fill="#E1E8EE" d="M10.952 6.538l2.725-2.477c.945-.859.945-2.263 0-3.122-.945-.86-2.492-.86-3.435 0L7.517 3.416 4.793.939c-.945-.86-2.49-.86-3.435 0-.945.859-.945 2.263 0 3.122l2.724 2.477-2.724 2.477c-.945.86-.945 2.264 0 3.123.945.86 2.49.86 3.435 0l2.724-2.477 2.725 2.477c.943.86 2.49.86 3.435 0 .945-.859.945-2.264 0-3.123l-2.725-2.477z" mask="url(#504p0lhjtg)"/>
                        </g>
                        <g transform="translate(-786 -2277) translate(70 2229) translate(716 48) translate(0 19.824) translate(0 77.88)">
                            <mask id="6co68oh8zi" fill="#fff">
                                <use xlink:href="#mlr41xr7oh"/>
                            </mask>
                            <path fill="#E1E8EE" d="M9.484 6.348l2.508-2.477c.87-.859.87-2.263 0-3.122-.87-.86-2.292-.86-3.162 0L6.322 3.226 3.814.749c-.87-.86-2.292-.86-3.162 0-.87.859-.87 2.263 0 3.122L3.16 6.348.652 8.825c-.87.86-.87 2.264 0 3.123.87.86 2.292.86 3.162 0l2.508-2.477 2.508 2.477c.87.86 2.292.86 3.162 0 .87-.859.87-2.264 0-3.123L9.484 6.348z" mask="url(#6co68oh8zi)"/>
                        </g>
                        <path fill="#E1E8EE" d="M306.21 243.552l1.966-2.247c.683-.778.683-2.052 0-2.833-.68-.779-1.796-.779-2.477 0l-1.966 2.247-1.968-2.247c-.68-.779-1.796-.779-2.477 0-.683.78-.683 2.055 0 2.833l1.964 2.247-1.964 2.247c-.683.78-.683 2.054 0 2.833.681.779 1.796.779 2.477 0l1.968-2.247 1.966 2.247c.68.779 1.797.779 2.477 0 .683-.779.683-2.053 0-2.833l-1.966-2.247z" transform="translate(-786 -2277) translate(70 2229) translate(716 48) translate(0 19.824)"/>
                    </g>
                </g>
            </g>
        </g>
    </g>
</svg>
