<svg xmlns="http://www.w3.org/2000/svg" xmlns:xlink="http://www.w3.org/1999/xlink" width="207" height="30" viewBox="0 0 207 30">
    <defs>
        <path id="f7l4rpl5ma" d="M0 0.235L20.402 0.235 20.402 20.629 0 20.629z"/>
        <path id="w5mbq1ugnc" d="M0.214 0.26L14.187 0.26 14.187 16.337 0.214 16.337z"/>
    </defs>
    <g fill="none" fill-rule="evenodd">
        <g>
            <g>
                <path fill="#30ABD6" d="M24.622 20.394l-5.908-.02.011-3.285 5.91.02c.518.001.94-.418.942-.936l.04-11.899c.001-.522-.42-.947-.943-.948l-11.896-.04c-.52-.002-.942.418-.944.937l-.048 14.438-3.286-.01.048-14.44C8.556 1.876 10.453-.009 12.786 0L24.698.04c2.33.007 4.212 1.903 4.205 4.233l-.04 11.908c-.008 2.335-1.907 4.22-4.241 4.213" transform="translate(-70 -25) translate(70 25)"/>
                <g transform="translate(-70 -25) translate(70 25) translate(0 8.193)">
                    <mask id="gc2opem26b" fill="#fff">
                        <use xlink:href="#f7l4rpl5ma"/>
                    </mask>
                    <path fill="#3A5EDD" d="M16.088 20.629l-11.853-.04C1.888 20.583-.008 18.674 0 16.328L.04 4.46C.046 2.119 1.951.227 4.293.235l4.282.02-.01 3.285-4.281-.02c-.528-.001-.958.426-.96.954l-.04 11.867c0 .53.427.96.957.963l11.859.039c.533.002.966-.429.968-.962l.047-14.302 3.286.01-.047 14.302c-.008 2.348-1.919 4.245-4.267 4.238" mask="url(#gc2opem26b)"/>
                </g>
                <path fill="#30ABD6" d="M12.87 18.675c-.005 1.49-1.217 2.695-2.708 2.69-1.49-.005-2.695-1.218-2.69-2.709.005-1.49 1.217-2.694 2.708-2.69 1.49.005 2.695 1.218 2.69 2.709" transform="translate(-70 -25) translate(70 25)"/>
                <path fill="#3A5EDD" d="M21.405 10.206c-.006 1.49-1.218 2.695-2.709 2.69-1.49-.005-2.695-1.217-2.69-2.708.005-1.49 1.218-2.695 2.708-2.69 1.491.005 2.696 1.217 2.69 2.708" transform="translate(-70 -25) translate(70 25)"/>
                <path fill="#1F2343" d="M47.8 10.924l2.01 5.163c.105.268-.094.559-.382.559h-4.02c-.29 0-.488-.29-.383-.56l2.01-5.162c.136-.349.629-.349.765 0m3.464 8.902l.925 2.351c.062.158.213.26.382.26h2.823c.294 0 .492-.299.379-.569L49.307 6.513c-.064-.152-.213-.251-.378-.251h-3c-.164 0-.313.099-.377.25l-6.488 15.356c-.115.27.084.57.377.57h2.844c.17 0 .322-.105.383-.263l.902-2.347c.061-.158.214-.263.383-.263h6.93c.168 0 .32.104.381.26M58.575 6.77v15.257c0 .227.183.41.41.41h2.713c.226 0 .41-.183.41-.41V6.77c0-.226-.184-.41-.41-.41h-2.713c-.227 0-.41.184-.41.41M83.98 8.943V6.77c0-.226-.184-.41-.41-.41H72.387c-.227 0-.41.184-.41.41v15.257c0 .227.183.41.41.41h11.181c.227 0 .41-.183.41-.41v-2.173c0-.226-.183-.41-.41-.41h-7.648c-.227 0-.41-.183-.41-.41v-2.692c0-.226.183-.41.41-.41h6.569c.226 0 .41-.183.41-.41v-2.1c0-.226-.184-.41-.41-.41h-6.57c-.226 0-.41-.183-.41-.41V9.765c0-.227.184-.41.41-.41h7.65c.226 0 .41-.184.41-.41M93.37 19.321h-2.476c-.226 0-.41-.183-.41-.41V9.886c0-.226.184-.41.41-.41h2.476c2.857 0 5.094 2.14 5.094 4.874 0 2.788-2.237 4.971-5.094 4.971m0-12.96H87.36c-.226 0-.41.183-.41.41v15.256c0 .227.184.41.41.41h6.009c5.123 0 8.7-3.325 8.7-8.087 0-4.704-3.577-7.99-8.7-7.99M119.14 6.36h-2.738c-.227 0-.41.184-.41.41v8.267c0 2.737-1.538 4.506-3.916 4.506-2.365 0-3.892-1.769-3.892-4.506V6.77c0-.226-.184-.41-.41-.41h-2.738c-.227 0-.41.184-.41.41v8.193c0 4.911 2.785 7.843 7.45 7.843 4.68 0 7.473-2.932 7.473-7.843V6.77c0-.226-.183-.41-.41-.41M135.5 16.13c-.181 0-.336.121-.392.293-.635 1.95-2.21 3.095-4.303 3.095-2.852 0-4.923-2.153-4.923-5.12 0-2.965 2.07-5.118 4.923-5.118 2.094 0 3.668 1.145 4.303 3.095.056.171.21.292.392.292h2.853c.257 0 .458-.234.404-.485-.805-3.722-3.895-6.165-7.927-6.165-4.943 0-8.53 3.525-8.53 8.382 0 4.857 3.587 8.382 8.53 8.382 4.032 0 7.122-2.443 7.927-6.165.054-.251-.147-.486-.404-.486H135.5zM148.665 10.924l2.01 5.163c.105.268-.093.559-.382.559h-4.02c-.289 0-.487-.29-.382-.56l2.01-5.162c.135-.349.629-.349.764 0m3.465 8.902l.925 2.351c.061.158.213.26.381.26h2.824c.294 0 .492-.299.378-.569l-6.465-15.355c-.064-.152-.213-.251-.378-.251h-3c-.165 0-.314.099-.378.25l-6.488 15.356c-.114.27.085.57.378.57h2.844c.17 0 .322-.105.383-.263l.902-2.347c.061-.158.213-.263.383-.263h6.93c.168 0 .32.104.38.26M169.585 6.36h-13.343c-.227 0-.41.184-.41.41v2.271c0 .227.183.41.41.41h4.507c.227 0 .41.184.41.41v12.166c0 .227.184.41.41.41h2.713c.227 0 .41-.183.41-.41V9.862c0-.227.184-.41.41-.41h4.483c.226 0 .41-.184.41-.41V6.77c0-.226-.184-.41-.41-.41M179.557 19.543c-2.774 0-4.947-2.26-4.947-5.144 0-2.885 2.173-5.144 4.947-5.144s4.947 2.26 4.947 5.144c0 2.884-2.173 5.144-4.947 5.144m0-13.526c-4.783 0-8.53 3.681-8.53 8.382 0 4.7 3.747 8.382 8.53 8.382 4.877 0 8.554-3.603 8.554-8.382s-3.677-8.382-8.554-8.382" transform="translate(-70 -25) translate(70 25)"/>
                <g transform="translate(-70 -25) translate(70 25) translate(191.041 6.1)">
                    <mask id="lb6t0zoold" fill="#fff">
                        <use xlink:href="#w5mbq1ugnc"/>
                    </mask>
                    <path fill="#1F2343" d="M3.747 3.712c0-.226.183-.41.41-.41h2.966c1.843 0 3.18 1.058 3.18 2.517 0 1.487-1.337 2.566-3.18 2.566H4.157c-.227 0-.41-.184-.41-.41V3.712zm6.83 12.625h3.199c.34 0 .532-.388.326-.659l-3.643-4.787.33-.167c1.921-.972 3.023-2.76 3.023-4.905 0-3.377-2.587-5.56-6.59-5.56H.623c-.227 0-.41.184-.41.41v15.258c0 .226.183.41.41.41h2.713c.226 0 .41-.184.41-.41V11.91c0-.226.183-.41.41-.41h2.424c.13 0 .252.061.33.166l3.337 4.504c.078.104.2.166.33.166z" mask="url(#lb6t0zoold)"/>
                </g>
            </g>
        </g>
    </g>
</svg>
