<svg xmlns="http://www.w3.org/2000/svg" xmlns:xlink="http://www.w3.org/1999/xlink" width="458" height="480" viewBox="0 0 458 480">
    <defs>
        <filter id="yruvbo9f9c" width="158.3%" height="158.3%" x="-29.2%" y="-20.8%" filterUnits="objectBoundingBox">
            <feOffset dy="2" in="SourceAlpha" result="shadowOffsetOuter1"/>
            <feGaussianBlur in="shadowOffsetOuter1" result="shadowBlurOuter1" stdDeviation="2"/>
            <feColorMatrix in="shadowBlurOuter1" values="0 0 0 0 0.121568627 0 0 0 0 0.137254902 0 0 0 0 0.262745098 0 0 0 0.25 0"/>
        </filter>
        <circle id="nzo1tz9nda" cx="229" cy="229" r="229"/>
        <path id="cdywg28x6d" d="M12 0C5.373 0 0 5.373 0 12s5.373 12 12 12 12-5.373 12-12C23.993 5.376 18.625.007 12 0zm4.977 12.645c-.083.166-.217.3-.383.383v.004l-6.826 3.411c-.422.21-.934.04-1.145-.381-.06-.12-.09-.252-.09-.386V8.853c0-.47.382-.853.853-.853.133 0 .263.03.382.09l6.826 3.411c.422.21.593.722.383 1.144z"/>
    </defs>
    <g fill="none" fill-rule="evenodd">
        <g>
            <g>
                <g transform="translate(-654 -2951) translate(654 2951) translate(0 22)">
                    <mask id="e1pfd8f6ib" fill="#fff">
                        <use xlink:href="#nzo1tz9nda"/>
                    </mask>
                    <use fill="#335CE5" opacity=".05" xlink:href="#nzo1tz9nda"/>
                    <text fill="#1F2343" font-family="Nunito-SemiBold, Nunito" font-size="14" font-weight="500" mask="url(#e1pfd8f6ib)">
                        <tspan x="-27" y="349">Sub Topic 1.5</tspan>
                    </text>
                    <g font-family="Nunito-Bold, Nunito" font-size="20" font-weight="bold" mask="url(#e1pfd8f6ib)">
                        <g>
                            <text fill="#FFF" transform="translate(215 -18)">
                                <tspan x=".4" y="20">P1</tspan>
                            </text>
                        </g>
                    </g>
                    <g mask="url(#e1pfd8f6ib)">
                        <g>
                            <g>
                                <path fill="#1F2343" fill-rule="nonzero" d="M3.925 64.22L6.39 67.37l1.603-1.253.394-.308.616.788-.394.308-1.603 1.253 2.463 3.152-9.862 1.997 4.32-9.088zm9.188-2.105l.616.788-3.151 2.463-.616-.788 2.757-2.155.394-.308zm4.727-3.695l.616.788-3.151 2.463-.616-.788 3.151-2.463zm4.728-3.695l.615.788-3.151 2.463-.616-.788.394-.308 2.364-1.847.394-.308zm4.727-3.695l.616.788-.394.308-2.364 1.847-.394.308-.616-.788.394-.308 2.364-1.847.394-.308zm4.727-3.695l.616.787-.394.308-2.364 1.848-.394.308-.616-.788 2.758-2.155.394-.308zm4.727-3.696l.616.788-.394.308-2.364 1.848-.393.308-.616-.788.394-.308 2.363-1.848.394-.308zm4.727-3.695l.616.788-.394.308-2.363 1.848-.394.308-.616-.788.394-.308 2.363-1.848.394-.308zm4.727-3.695l.616.788-.394.308-2.363 1.848-.394.308-.616-.788.394-.308 2.364-1.848.393-.308zm4.728-3.695l.615.788-.393.308-2.364 1.848-.394.307-.616-.787.394-.308 2.364-1.848.394-.308zm4.727-3.695l.616.788-.394.308-2.364 1.847-.394.308-.616-.788.394-.307 2.364-1.848.394-.308zm4.727-3.695l.616.788-.394.308-2.364 1.847-.394.308-.615-.788 2.757-2.155.394-.308zm4.727-3.695l.616.788-.394.308-2.757 2.155-.616-.788 3.151-2.463zm4.727-3.695l.616.788-2.757 2.155-.394.308-.616-.788 3.151-2.463zm4.727-3.695l.616.787-.394.308-2.363 1.848-.394.308-.616-.788.394-.308 2.757-2.155zm4.728-3.696l.615.788-.393.308-2.364 1.848-.394.308-.616-.788.394-.308 2.364-1.848.394-.308zm4.727-3.695l.616.788-.394.308-2.364 1.848-.394.308-.616-.788.394-.308 2.364-1.848.394-.308zm4.727-3.695l.616.788-.394.308-2.364 1.848-.394.308-.615-.788.393-.308L88.354 3.3l.394-.308zm4.727-3.695l.616.788-.394.308-2.757 2.155-.616-.787.394-.308L93.08-.394l.394-.308zM96.925 64.22l2.464 3.151 1.603-1.253.394-.308.616.788-.394.308-1.603 1.253 2.463 3.152-9.862 1.997 4.32-9.088zm9.188-2.105l.616.788-3.151 2.463-.616-.788 2.757-2.155.394-.308zm4.727-3.695l.616.788-3.151 2.463-.616-.788 3.151-2.463zm4.728-3.695l.615.788-3.151 2.463-.616-.788.394-.308 2.364-1.847.394-.308zm4.727-3.695l.616.788-.394.308-2.364 1.847-.394.308-.616-.788.394-.308 2.364-1.847.394-.308zm4.727-3.695l.616.787-.394.308-2.364 1.848-.394.308-.616-.788 2.758-2.155.394-.308zm4.727-3.696l.616.788-.394.308-2.364 1.848-.393.308-.616-.788.394-.308 2.363-1.848.394-.308zm4.727-3.695l.616.788-.394.308-2.363 1.848-.394.308-.616-.788.394-.308 2.363-1.848.394-.308zm4.727-3.695l.616.788-.394.308-2.363 1.848-.394.308-.616-.788.394-.308 2.364-1.848.393-.308zm4.728-3.695l.615.788-.393.308-2.364 1.848-.394.307-.616-.787.394-.308 2.364-1.848.394-.308zm4.727-3.695l.616.788-.394.308-2.364 1.847-.394.308-.616-.788.394-.307 2.364-1.848.394-.308zm4.727-3.695l.616.788-.394.308-2.364 1.847-.394.308-.615-.788 2.757-2.155.394-.308zm4.727-3.695l.616.788-.394.308-2.757 2.155-.616-.788 3.151-2.463zm4.727-3.695l.616.788-2.757 2.155-.394.308-.616-.788 3.151-2.463zm4.727-3.695l.616.787-.394.308-2.363 1.848-.394.308-.616-.788.394-.308 2.757-2.155zm4.728-3.696l.615.788-.393.308-2.364 1.848-.394.308-.616-.788.394-.308 2.364-1.848.394-.308zm4.727-3.695l.616.788-.394.308-2.364 1.848-.394.308-.616-.788.394-.308 2.364-1.848.394-.308zm4.727-3.695l.616.788-.394.308-2.364 1.848-.394.308-.615-.788.393-.308 2.364-1.848.394-.308zm4.727-3.695l.616.788-.394.308-2.757 2.155-.616-.787.394-.308 2.363-1.848.394-.308z" transform="translate(-27 237) translate(146)"/>
                            </g>
                            <g transform="translate(-27 237) translate(101 75)">
                                <circle cx="35" cy="35" r="35" fill="#E73958"/>
                                <g fill="#FFF">
                                    <path d="M12 0C5.373 0 0 5.373 0 12s5.373 12 12 12 12-5.373 12-12C23.993 5.376 18.625.007 12 0zm4.977 12.645c-.083.166-.217.3-.383.383v.004l-6.826 3.411c-.422.21-.934.04-1.145-.381-.06-.12-.09-.252-.09-.386V8.853c0-.47.382-.853.853-.853.133 0 .263.03.382.09l6.826 3.411c.422.21.593.722.383 1.144z" transform="translate(23 23)"/>
                                </g>
                            </g>
                            <g>
                                <g transform="translate(-27 237) translate(310 75)">
                                    <circle cx="35" cy="35" r="35" fill="#FFB44D"/>
                                    <g fill="#FFF">
                                        <path d="M12 0C5.373 0 0 5.373 0 12s5.373 12 12 12 12-5.373 12-12C23.993 5.376 18.625.007 12 0zm4.977 12.645c-.083.166-.217.3-.383.383v.004l-6.826 3.411c-.422.21-.934.04-1.145-.381-.06-.12-.09-.252-.09-.386V8.853c0-.47.382-.853.853-.853.133 0 .263.03.382.09l6.826 3.411c.422.21.593.722.383 1.144z" transform="translate(23 23)"/>
                                    </g>
                                </g>
                                <g fill="#1F2343" font-family="Nunito-SemiBold, Nunito" font-size="14" font-weight="500">
                                    <text transform="translate(-27 237) translate(310 75) translate(85 23)">
                                        <tspan x="0" y="14">Sub Topic 1.6</tspan>
                                    </text>
                                </g>
                            </g>
                        </g>
                    </g>
                    <g mask="url(#e1pfd8f6ib)">
                        <g>
                            <g>
                                <path fill="#1F2343" fill-rule="nonzero" d="M3.925 64.22L6.39 67.37l1.603-1.253.394-.308.616.788-.394.308-1.603 1.253 2.463 3.152-9.862 1.997 4.32-9.088zm9.188-2.105l.616.788-3.151 2.463-.616-.788 2.757-2.155.394-.308zm4.727-3.695l.616.788-3.151 2.463-.616-.788 3.151-2.463zm4.728-3.695l.615.788-3.151 2.463-.616-.788.394-.308 2.364-1.847.394-.308zm4.727-3.695l.616.788-.394.308-2.364 1.847-.394.308-.616-.788.394-.308 2.364-1.847.394-.308zm4.727-3.695l.616.787-.394.308-2.364 1.848-.394.308-.616-.788 2.758-2.155.394-.308zm4.727-3.696l.616.788-.394.308-2.364 1.848-.393.308-.616-.788.394-.308 2.363-1.848.394-.308zm4.727-3.695l.616.788-.394.308-2.363 1.848-.394.308-.616-.788.394-.308 2.363-1.848.394-.308zm4.727-3.695l.616.788-.394.308-2.363 1.848-.394.308-.616-.788.394-.308 2.364-1.848.393-.308zm4.728-3.695l.615.788-.393.308-2.364 1.848-.394.307-.616-.787.394-.308 2.364-1.848.394-.308zm4.727-3.695l.616.788-.394.308-2.364 1.847-.394.308-.616-.788.394-.307 2.364-1.848.394-.308zm4.727-3.695l.616.788-.394.308-2.364 1.847-.394.308-.615-.788 2.757-2.155.394-.308zm4.727-3.695l.616.788-.394.308-2.757 2.155-.616-.788 3.151-2.463zm4.727-3.695l.616.788-2.757 2.155-.394.308-.616-.788 3.151-2.463zm4.727-3.695l.616.787-.394.308-2.363 1.848-.394.308-.616-.788.394-.308 2.757-2.155zm4.728-3.696l.615.788-.393.308-2.364 1.848-.394.308-.616-.788.394-.308 2.364-1.848.394-.308zm4.727-3.695l.616.788-.394.308-2.364 1.848-.394.308-.616-.788.394-.308 2.364-1.848.394-.308zm4.727-3.695l.616.788-.394.308-2.364 1.848-.394.308-.615-.788.393-.308L88.354 3.3l.394-.308zm4.727-3.695l.616.788-.394.308-2.757 2.155-.616-.787.394-.308L93.08-.394l.394-.308zM96.925 64.22l2.464 3.151 1.603-1.253.394-.308.616.788-.394.308-1.603 1.253 2.463 3.152-9.862 1.997 4.32-9.088zm9.188-2.105l.616.788-3.151 2.463-.616-.788 2.757-2.155.394-.308zm4.727-3.695l.616.788-3.151 2.463-.616-.788 3.151-2.463zm4.728-3.695l.615.788-3.151 2.463-.616-.788.394-.308 2.364-1.847.394-.308zm4.727-3.695l.616.788-.394.308-2.364 1.847-.394.308-.616-.788.394-.308 2.364-1.847.394-.308zm4.727-3.695l.616.787-.394.308-2.364 1.848-.394.308-.616-.788 2.758-2.155.394-.308zm4.727-3.696l.616.788-.394.308-2.364 1.848-.393.308-.616-.788.394-.308 2.363-1.848.394-.308zm4.727-3.695l.616.788-.394.308-2.363 1.848-.394.308-.616-.788.394-.308 2.363-1.848.394-.308zm4.727-3.695l.616.788-.394.308-2.363 1.848-.394.308-.616-.788.394-.308 2.364-1.848.393-.308zm4.728-3.695l.615.788-.393.308-2.364 1.848-.394.307-.616-.787.394-.308 2.364-1.848.394-.308zm4.727-3.695l.616.788-.394.308-2.364 1.847-.394.308-.616-.788.394-.307 2.364-1.848.394-.308zm4.727-3.695l.616.788-.394.308-2.364 1.847-.394.308-.615-.788 2.757-2.155.394-.308zm4.727-3.695l.616.788-.394.308-2.757 2.155-.616-.788 3.151-2.463zm4.727-3.695l.616.788-2.757 2.155-.394.308-.616-.788 3.151-2.463zm4.727-3.695l.616.787-.394.308-2.363 1.848-.394.308-.616-.788.394-.308 2.757-2.155zm4.728-3.696l.615.788-.393.308-2.364 1.848-.394.308-.616-.788.394-.308 2.364-1.848.394-.308zm4.727-3.695l.616.788-.394.308-2.364 1.848-.394.308-.616-.788.394-.308 2.364-1.848.394-.308zm4.727-3.695l.616.788-.394.308-2.364 1.848-.394.308-.615-.788.393-.308 2.364-1.848.394-.308zm4.727-3.695l.616.788-.394.308-2.757 2.155-.616-.787.394-.308 2.363-1.848.394-.308z" transform="translate(83 382) translate(146)"/>
                            </g>
                            <g fill="#E73958" transform="translate(83 382) translate(101 75)">
                                <circle cx="35" cy="35" r="35"/>
                            </g>
                            <g fill="#FFB44D" transform="translate(83 382) translate(310 75)">
                                <circle cx="35" cy="35" r="35"/>
                            </g>
                        </g>
                    </g>
                    <path fill="#1F2343" fill-rule="nonzero" d="M219.25 43.667l-5.75 12-5.75-12h11.5zm-5-5.667v3h-1.5v-3h1.5zm0-6v3h-1.5v-3h1.5zm0-6v3h-1.5v-3h1.5zm0-6v3h-1.5v-3h1.5z"/>
                    <g mask="url(#e1pfd8f6ib)">
                        <g>
                            <g transform="translate(178 57)">
                                <circle cx="35" cy="35" r="35" fill="#10C9B9"/>
                                <g transform="translate(23 23)">
                                    <use fill="#000" filter="url(#yruvbo9f9c)" xlink:href="#cdywg28x6d"/>
                                    <use fill="#FFF" xlink:href="#cdywg28x6d"/>
                                </g>
                            </g>
                            <g font-family="Nunito-SemiBold, Nunito" font-size="14" font-weight="500">
                                <text fill="#1F2343" transform="translate(178 57) translate(84 23)">
                                    <tspan x="0" y="14">Sub Topic 1.1</tspan>
                                </text>
                            </g>
                        </g>
                    </g>
                    <path fill="#1F2343" fill-rule="nonzero" d="M219.25 153.667l-5.75 12-5.75-12h11.5zm-5-5.667v3h-1.5v-3h1.5zm0-6v3h-1.5v-3h1.5zm0-6v3h-1.5v-3h1.5zm0-6v3h-1.5v-3h1.5z"/>
                    <g mask="url(#e1pfd8f6ib)">
                        <g>
                            <g transform="translate(178 167)">
                                <circle cx="35" cy="35" r="35" fill="#10C9B9"/>
                                <g fill="#FFF">
                                    <path d="M23.187 2.256C16.815-.337 13.388 2.43 11.9 4.314 10.547 2.598 7.58.15 2.24 1.686c-.551.162-1.094.353-1.626.57-.109.051-.209.118-.298.199-.053.057-.1.12-.138.188-.04.052-.076.109-.105.169-.047.118-.072.244-.074.371v15.868c.005.1.024.198.055.293v.074c.152.383.525.632.937.625.139 0 .276-.033.401-.094 7.116-2.881 9.467 2.167 9.59 2.45 0 .03.035.054.05.079.037.075.084.145.139.208.034.037.073.07.114.1.045.037.093.07.144.098l.153.07c.065.02.131.033.199.04.039.01.079.018.119.024.04.003.08.003.119 0 .067-.008.133-.021.198-.04l.154-.069c.05-.028.099-.062.144-.1.04-.031.078-.066.114-.103.055-.06.102-.126.139-.199l.05-.084c.108-.253 2.4-5.37 9.619-2.435.309.125.66.087.934-.102.274-.188.436-.502.43-.835V3.183c.004-.405-.24-.773-.615-.927zM1.983 17.643V3.873c.204-.075.422-.159.62-.218.199-.06.263-.07.397-.105.253-.064.496-.133.744-.178.149-.03.287-.045.431-.065.144-.02.412-.064.605-.079h.952c.174 0 .263 0 .392.03s.312.035.461.06l.362.069c.139.03.278.07.412.109l.322.1.367.148.278.129c.114.06.223.119.327.183.104.065.168.09.243.14.074.049.203.143.297.212.095.07.134.094.194.144.06.05.198.174.292.258.095.084.09.074.124.114.13.124.243.248.347.367l.09.109.198.248c.035.045.06.09.09.129l.133.193.07.114.094.154c.017.029.032.059.044.09.015.021.029.045.04.069v12.729c-1.651-1.498-4.492-2.852-8.926-1.483zm19.835 0c-4.433-1.369-7.27 0-8.925 1.488V6.377c.436-.853 2.801-4.706 8.925-2.52v13.786z" transform="translate(23 23)"/>
                                </g>
                            </g>
                            <g font-family="Nunito-SemiBold, Nunito" font-size="14" font-weight="500">
                                <text fill="#1F2343" transform="translate(178 167) translate(84 23)">
                                    <tspan x="0" y="14">Sub Topic 1.1</tspan>
                                </text>
                            </g>
                        </g>
                    </g>
                </g>
                <g transform="translate(-654 -2951) translate(654 2951) translate(158)">
                    <rect width="110" height="38" fill="#3A5EDD" rx="19"/>
                    <text fill="#FFF" font-family="Nunito-Bold, Nunito" font-size="20" font-weight="bold">
                        <tspan x="42.4" y="24">P1</tspan>
                    </text>
                </g>
            </g>
        </g>
    </g>
</svg>
